<svg width="16" height="16" viewBox="0 0 16 16" fill="none" xmlns="http://www.w3.org/2000/svg">
    <path d="M8 16C12.4183 16 16 12.4183 16 8C16 3.58172 12.4183 0 8 0C3.58172 0 0 3.58172 0 8C0 12.4183 3.58172 16 8 16Z" fill="#73797C"/>
    <path fill-rule="evenodd" clip-rule="evenodd" d="M7.42295 5.6736C7.17749 5.6736 6.9785 5.47461 6.9785 5.22915V4.0736C6.9785 3.82814 7.17749 3.62915 7.42295 3.62915H8.5785C8.82396 3.62915 9.02295 3.82814 9.02295 4.0736L9.02295 5.22915C9.02295 5.47461 8.82396 5.6736 8.5785 5.6736H7.42295ZM7.42295 12.2012C7.17749 12.2012 6.9785 12.0022 6.9785 11.7567V7.081C6.9785 6.83554 7.17749 6.63656 7.42295 6.63656H8.5785C8.82396 6.63656 9.02295 6.83554 9.02295 7.081V11.7567C9.02295 12.0022 8.82396 12.2012 8.5785 12.2012H7.42295Z" fill="white"/>
</svg>
