<svg width="585" height="436" viewBox="0 0 585 436" fill="none" xmlns="http://www.w3.org/2000/svg">
<path d="M2 243L322.843 427.9L581.881 278.5L261.138 93.5996L2 243Z" fill="#FAFAFA" stroke="#223893"/>
<path d="M322.843 413.6L544.918 285.6L261.138 122.1L39.0625 250.1L322.843 413.6Z" fill="#1D5EFF"/>
<path d="M228.283 359L387.552 266V195L261.138 122.1L39.0625 250.1L228.283 359Z" fill="#005DCD"/>
<path d="M544.917 285.599L557.238 278.499L261.137 107.799V122.099L544.917 285.599Z" fill="#EBEBEB"/>
<path d="M261.137 107.799L26.7402 242.899L39.0611 250.099L261.137 122.099V107.799Z" fill="#E0E0E0"/>
<path d="M322.844 427.9V435L581.882 285.6V278.5L322.844 427.9Z" fill="#E0E0E0" stroke="#223893" stroke-miterlimit="6.07152"/>
<path d="M2 243V250.1L322.843 435V427.9L2 243Z" fill="#EBEBEB" stroke="#223893" stroke-miterlimit="6.07152"/>
<path opacity="0.7" d="M261.139 122.1V193.2L483.214 321.2L544.919 285.6L261.139 122.1Z" fill="white"/>
<path opacity="0.5" d="M261.339 122V193.1L100.968 285.5L39.2637 250L261.339 122Z" fill="white"/>
<path opacity="0.6" d="M261.14 193.199L100.668 285.599L322.844 413.599L483.215 321.199L261.14 193.199Z" fill="white"/>
<path opacity="0.37" d="M387.552 195.1V266.2L227.181 358.6L165.477 323.1L387.552 195.1Z" fill="white"/>
<path opacity="0.37" d="M387.553 200V266.2L228.284 359L169.184 325L387.553 200Z" fill="#0000FF"/>
<g opacity="0.3">
<path opacity="0.3" d="M331.358 400.1C329.455 400.2 327.552 400 325.749 399.5C324.246 398.8 322.844 398 321.541 397.1C317.835 395.4 312.526 396.1 307.918 396.4C305.014 396.6 302.008 396.6 299.104 396.4L306.015 400.4C307.418 400 308.92 399.7 310.423 399.5C311.825 399.3 313.328 399.4 314.73 399.8C317.735 400.7 320.039 403.2 323.044 404.2C326.55 405.3 330.557 404 333.862 405.5H333.962L346.985 398C346.684 398.1 346.384 398.3 346.083 398.4C341.676 400.1 336.367 400.1 331.358 400.1Z" fill="white"/>
<path opacity="0.3" d="M521.98 286.8C520.678 284.3 519.977 281.4 518.274 279.1C514.267 273.7 505.953 273.4 501.245 268.5C499.042 266.2 497.539 262.3 498.14 259.6L491.328 255.7C490.427 257.1 489.726 258.5 489.225 260.1C488.424 263.7 491.328 267.2 495.135 270C498.941 272.8 503.85 275.2 508.057 277.8C512.264 280.5 515.87 283.7 516.371 287.3C516.872 290.4 514.768 293.6 510.962 295.8C506.454 298.2 501.345 299.3 496.237 299C489.125 298.6 481.812 299.2 474.7 298.2C470.794 297.7 466.987 296.7 463.381 295.3C461.578 294.5 459.875 293.7 458.172 292.7C456.57 291.8 454.767 291.3 453.264 290.3C451.361 289 450.059 287.4 450.359 285.6C450.66 283.9 452.463 282.5 453.565 280.9C455.969 277.3 453.965 272.9 448.957 270.4C446.352 269.2 442.746 268 442.846 266C442.947 264 446.453 263.1 449.257 262.1C455.267 260.1 460.076 257 462.981 253.4C464.283 251.7 465.184 250 466.587 248.4C468.189 246.7 470.193 245.5 472.497 244.9L464.082 240.1C463.782 241.4 463.181 242.5 462.279 243.5C460.576 245.3 457.872 245.9 455.568 245.1C453.164 244.1 451.762 241.6 449.658 240C445.05 236.7 438.239 239 433.13 236.7C427.12 234 425.417 226.4 421.61 221.1C418.105 216.7 413.497 213.3 408.188 211.3C402.979 209.1 397.57 207.8 392.261 205.9C391.56 205.7 390.858 205.3 390.458 204.7C389.757 203.5 390.358 200.3 391.159 198L369.623 185.6C367.118 184.7 364.514 183.7 362.01 183C355.398 181.3 348.487 181.5 341.675 181.5C341.275 181.5 340.974 181.5 340.573 181.3C339.972 180.9 339.972 180.1 339.872 179.4C339.772 176.3 338.77 173.2 336.867 170.7C336.366 170.2 336.166 169.6 336.166 169C336.366 168.2 337.368 167.9 338.169 167.8H338.57L332.259 164.2L322.843 163.8C319.137 163.8 315.431 163.3 311.925 162.1C307.918 160.5 304.713 157.4 300.906 155.3C293.093 151 283.677 151.6 274.862 152.7C273.961 152.9 272.959 152.8 272.057 152.5C270.555 151.6 270.855 149.3 270.455 147.5C269.754 145.2 268.051 143.3 265.847 142.3C263.743 141.2 261.439 140.4 259.436 139.2C258.835 138.9 258.434 138.4 258.134 137.9C257.333 136.2 259.236 134.5 260.939 133.6C264.144 131.8 267.349 130.2 270.755 128.8L263.844 124.9L242.107 137C242.507 137 243.609 137.1 244.01 137.2C250.421 138 256.431 140.4 261.74 144C265.046 146.5 267.249 149.9 265.546 152.8C264.545 154.5 262.441 155.9 261.039 157.4C259.636 158.9 258.735 161 260.438 162.5C262.842 164.6 268.552 164.4 271.557 166.2C272.057 166.4 272.458 166.8 272.658 167.3C272.859 168.5 270.655 169.2 269.052 169.9C267.55 170.5 266.348 171.6 265.747 173.1C265.647 173.8 265.446 174.4 265.246 175C264.745 175.8 263.944 176.3 262.942 176.3C261.54 176.2 260.137 175.8 258.935 175C254.327 172.9 247.316 174.4 242.007 173C240.304 172.5 238.701 171.8 237.098 171C230.988 168.1 223.876 166 217.966 162.9C214.56 161.2 211.555 158.8 209.151 155.8L179.601 172.8C179.1 176.3 179.701 179.9 181.404 183.1C182.506 184.9 183.908 186.8 183.307 188.8C182.706 190.1 181.705 191.1 180.402 191.7C178.9 192.8 177.197 193.4 175.394 193.5C173.19 193.5 171.387 191.9 169.684 190.7C166.178 188.3 162.372 186.4 158.365 185.1L136.428 197.7C136.127 198.6 135.927 199.4 135.827 200.3C135.827 203.3 136.929 206.3 138.732 208.7C139.734 210 140.936 211.1 141.837 212.4C142.839 213.7 143.239 215.4 143.039 217C142.438 219.4 139.734 220.6 137.229 221C134.425 221.5 131.52 221.3 128.715 221.7C125.81 221.9 123.206 223.3 121.403 225.5C120.902 226.4 120.301 227.2 119.499 227.9C118.698 228.3 117.897 228.4 116.995 228.3C113.189 227.9 109.683 226.1 106.077 224.9C101.869 223.5 97.3618 222.8 92.8542 222.9L45.5742 250.2L48.2788 251.8C48.98 251.5 49.7813 251.2 50.2822 250.9C52.2856 249.9 54.289 249 56.2924 248.2C59.5979 246.7 63.3042 245.5 66.8101 246.2C70.4162 246.9 73.5215 249.6 76.7269 251.5C82.2363 254.8 88.7473 256.1 94.8576 257.9C98.063 258.9 101.569 260.4 102.671 263.5C103.272 266.2 102.571 269 100.768 271.1C99.1649 273.2 97.0613 275 95.3585 277.1C95.0579 277.5 94.7574 278 94.4569 278.5L99.8661 281.6C100.167 280.5 100.667 279.4 101.369 278.4C103.372 275.1 105.676 271.8 106.878 268.4C108.38 265 107.88 261 105.576 258.1C103.873 256.2 101.769 254.7 99.3652 253.7C95.0579 251.9 89.749 251 85.1412 249.5C81.9357 248.6 79.131 246.9 76.7269 244.7C74.8237 243 74.5232 240.1 75.9256 238C77.5283 235.8 81.0342 234.2 84.44 232.9C88.4468 231.2 92.754 230 97.1615 229.5C101.769 229.1 107.078 230 109.683 232.2C111.686 233.9 111.786 236.2 113.589 238C115.392 239.8 119.099 241.2 122.304 242.4C125.509 243.6 128.815 245.3 129.516 247.5C130.117 249.5 128.515 251.5 128.214 253.5C127.713 256.6 130.217 259.6 133.122 262.2C136.027 264.8 139.433 267.3 141.136 270.3C142.138 271.8 142.238 273.7 141.236 275.2C140.134 276.7 137.83 277.8 135.727 279C133.723 280 131.92 281.3 130.418 282.9C128.815 284.6 128.915 286.6 128.014 288.7C127.212 290.4 125.71 291.8 123.807 292.4C122.504 292.8 121.202 293 119.9 293L136.829 302.8C141.236 302.6 145.644 303.1 149.951 304.3C151.854 304.7 153.657 305.4 155.26 306.3C156.662 307.4 157.964 308.6 159.166 310C167.48 317.9 181.504 317.5 189.317 325.8C192.222 328.9 194.025 333 195.929 336.9L217.866 349.5C219.368 348.4 221.071 347.4 222.774 346.6C225.479 345.4 226.681 343.2 225.879 341.3C225.679 340.9 225.579 340.5 225.579 340.1C225.679 339.8 225.879 339.5 226.18 339.2C228.283 337.4 232.891 336.8 236.097 337.8C238.801 338.7 240.404 340.4 243.108 341.3C246.214 342 249.419 342.1 252.625 341.7C254.828 341.4 257.032 341.4 259.236 341.5C261.139 341.5 263.042 342.3 264.445 343.6C265.346 344.8 264.745 346.2 264.945 347.5C265.246 349.9 268.351 351.9 271.957 353.2C275.864 354.3 279.871 355.1 283.978 355.4C287.984 355.7 292.091 356.5 295.998 357.6C298.202 358.3 300.205 359.4 302.008 360.7C302.609 361.1 303.01 361.6 303.21 362.3C303.21 362.9 302.91 363.4 302.509 363.8L300.305 366.8C299.504 368 298.402 369 297.2 369.8C294.896 370.9 292.392 371.6 289.888 371.7C283.477 372.5 275.864 372.1 271.657 369.2C269.253 367.6 268.351 365.4 266.448 363.6C263.142 361 259.136 359.3 255.029 358.9C250.321 358.2 245.513 358.3 240.805 359.2C239.402 359.4 238 359.7 236.698 360.1L242.908 363.7C243.91 363.3 245.012 363.1 246.114 363C249.419 362.6 252.825 362.6 256.13 363.1C257.733 363.4 259.336 363.8 260.838 364.6C262.441 365.4 263.844 366.6 264.845 368.1C265.346 368.9 265.647 369.8 266.047 370.6C266.648 372.1 267.65 373.4 268.752 374.4C269.754 375.2 270.455 375.3 270.855 376.6C271.156 377.6 270.956 378.7 270.455 379.7L274.862 382.3C275.363 381.8 275.864 381.4 276.365 381C279.27 378.5 282.976 377 286.782 377L285.881 377.2C293.093 376.5 299.905 373.7 305.514 369C307.517 367.3 309.521 365.6 309.922 363.6C310.322 361.6 309.22 359.3 306.215 358.3C304.512 357.7 302.509 357.6 300.806 357C299.103 356.4 297.601 355.3 298.402 354.3C299.304 353.6 300.405 353.2 301.507 353.1C311.324 351.3 322.944 352.4 331.458 349.2C336.366 347.3 339.572 344.2 344.48 342.3C350.891 340.1 357.803 339.9 364.314 341.9C366.818 342.7 369.122 343.9 371.325 345.5C374.431 347.7 376.935 350.4 377.035 353.2C377.135 356 374.33 359.1 369.723 360C365.716 360.8 361.509 360 357.402 359.5C353.495 359.1 349.589 359 345.682 359.2C342.477 359.2 339.371 359.9 336.366 361C332.159 363 331.358 366.7 332.96 369.8C334.563 372.9 338.169 375.4 341.575 377.8C345.882 380.9 350.19 384.2 351.893 388.1C353.295 391.5 352.093 395.4 348.988 397.3L362.611 389.5C360.908 387.1 360.006 384.1 358.203 381.7C355.699 378.5 351.792 376.7 347.886 375.4C345.882 374.9 344.079 374 342.376 372.8C340.674 371.6 339.872 369.4 340.373 367.4C341.174 365.1 343.879 364.1 346.283 363.8C355.298 362.5 364.514 365.5 373.629 364.5C376.835 364.1 380.14 363.4 383.246 364.2C385.349 365 387.353 366 389.256 367.1C391.96 368.5 395.066 369.1 398.071 369.1L420.108 356.3C420.108 353.9 420.208 351.5 420.408 349.1C420.408 348.3 420.609 347.5 420.909 346.7C421.21 345.9 421.911 345.4 422.813 345.2C423.313 345.2 423.714 345.3 424.115 345.5C426.619 346.3 430.726 347 433.831 348.3L438.239 345.7C433.631 344.4 429.824 342.1 425.217 340.7C422.813 340 419.707 339.5 417.504 340.4C416.301 340.9 415.4 341.9 414.999 343.1C414.398 344.7 414.198 346.4 414.398 348.2C414.799 349.9 414.999 351.7 415.2 353.4C415.099 357.2 411.193 361.1 404.882 362.1C400.274 362.7 395.667 362 391.56 359.9C388.454 358.4 385.95 355.9 384.448 352.8L384.247 351.6C383.546 347.5 379.239 343.7 373.128 341.5C371.426 341 369.723 340.4 368.12 339.7C366.617 338.9 365.516 337.8 365.916 336.7C366.217 336.1 366.718 335.5 367.218 335.1C368.721 333.5 368.821 331.1 367.519 329.4C366.617 328.3 365.315 326.8 366.818 325.9C368.02 325.4 369.322 325.3 370.524 325.7C371.626 326.1 372.527 326.6 373.429 327.3C376.134 329.2 379.239 330.4 382.544 330.8C389.156 331.5 394.965 328.3 399.473 325.5L406.685 320.9C408.889 319.3 411.594 318.4 414.398 318.3C416.201 318.5 417.904 318.9 419.607 319.4C421.811 319.7 424.015 319.9 426.218 319.8C435.835 319.9 445.351 322 454.166 326C456.77 327.2 459.274 328.8 461.378 330.7C461.778 331.1 462.179 331.4 462.48 331.8L470.293 327.3C468.189 325.8 465.785 324.6 463.281 324.1C462.179 324 461.077 323.8 460.076 323.5C458.974 323.1 458.273 322.1 458.273 321C458.473 319.1 461.077 318.9 462.88 318.7C468.39 317.9 472.697 313.3 473.198 307.8C473.198 306.9 473.198 305.8 473.999 305.2C474.6 304.8 475.201 304.7 475.902 304.7L505.753 304.3C507.255 304.3 508.958 304.1 510.962 304L528.792 293.7C525.687 291.8 523.483 289.5 521.98 286.8ZM398.572 212.7C401.577 213.4 404.482 214.5 407.286 215.9C419.407 222.6 415.2 235.3 427.02 242.2C429.824 243.8 432.93 244.7 436.235 244.7C439.441 244.7 442.346 243.6 445.551 243.8C449.157 244 451.06 245.4 452.062 248.9C453.765 255 446.853 258.9 442.045 260.6C436.335 262.6 429.324 263.2 424.115 265.6C421.41 266.9 418.605 268.8 415.3 268.3C413.497 268.1 411.894 266.9 411.193 265.2C410.692 263.9 410.892 262.5 410.291 261.1C409.39 258.9 406.685 257.1 403.78 255.6C395.366 251.3 384.448 248.4 378.638 242.9C377.636 241.9 376.735 240.7 377.436 239.7C378.938 237.5 384.948 238 388.054 236.5C391.159 235 390.257 231.9 388.855 229.5C387.453 227.1 386.05 224.8 384.648 222.4C383.546 220.9 382.845 219.1 382.544 217.2C382.645 215 384.047 213.1 386.05 212.5C389.556 211.1 394.565 211.6 398.572 212.7ZM342.877 298.3C344.179 300.4 345.582 302.8 343.478 304.6C342.176 305.5 340.674 306.2 339.071 306.5C336.667 307.2 334.163 307.6 331.558 307.6C329.354 307.5 327.251 307.1 325.147 306.5C322.242 305.5 318.135 303 315.331 302C313.327 301.3 310.523 300.5 308.519 299.9C306.416 299.2 304.713 298 304.813 296.6C305.013 294.9 307.618 293.8 309.621 292.6C314.629 289.4 315.331 284.3 311.124 280.7C309.821 279.6 308.118 278.6 306.916 277.5C305.714 276.4 305.314 274.8 306.716 273.7C309.02 271.8 314.028 272.6 317.835 272C323.144 271.1 325.748 267.5 330.757 266.1C335.765 264.8 341.976 266 347.084 267.4C352.293 268.7 357.402 270.7 362.11 273.3C366.317 275.9 369.122 279.3 368.621 282.8C368.12 286.3 363.713 289.8 357.702 290.3C355.098 290.6 352.393 290.4 349.789 290.4C347.285 290.3 344.881 290.8 342.677 292C340.373 293.8 341.575 296.3 342.877 298.3ZM227.081 254.9C224.176 252.4 220.871 250.4 217.265 248.9C213.759 247.4 209.752 246.3 206.446 244.7C203.141 243 200.536 240.7 201.137 238.2C201.638 236 204.443 234.2 207.949 233.3C211.555 232.4 215.362 232.1 219.068 232.4C226.08 232.7 233.092 234.4 239.502 237.3C241.706 238.4 243.91 239.7 244.31 241.3C244.511 242.5 244.31 243.8 243.81 244.9C243.008 247.8 244.711 250.8 247.516 251.6H247.616C250.12 252.5 253.326 252.5 256.13 253.1C258.935 253.7 261.64 255.5 260.137 257C259.536 257.5 258.835 257.9 258.134 258.3C255.83 259.9 256.531 262.2 256.932 264.2C257.333 267.2 256.631 270.2 255.029 272.7C254.928 273 254.728 273.2 254.528 273.4C250.822 276.5 248.518 280.7 242.307 281.8C238.3 282.4 234.294 281.3 231.088 279C227.883 276.5 226.48 273.3 227.282 270.2C228.183 267.1 230.788 264.6 230.888 261.6C230.988 259.2 229.385 256.9 227.081 254.9ZM189.818 257.4C189.117 256.3 188.015 255.4 186.713 254.9L177.197 249.5C175.294 248.4 173.29 247.2 173.19 245.7C173.19 244.6 174.192 243.5 175.594 242.6C180.803 240.1 186.713 240 192.022 242.1C194.927 243.6 196.73 245.6 199.234 247.3C202.74 249.3 206.547 250.8 210.453 251.9C214.36 252.9 218.166 254.5 221.672 256.4C224.677 258.4 226.48 261.2 225.078 263.7C223.976 265.5 221.372 266.9 220.771 268.8C220.17 270.7 221.071 272.9 218.367 273.8C216.564 274.4 214.36 273.9 212.256 273.8C208.35 273.7 204.944 275.1 201.238 275.9C196.93 276.5 192.623 276 188.616 274.3C186.413 273.2 184.509 271.7 183.007 269.8C181.705 267.9 182.105 265.3 183.908 263.8C186.312 261.7 190.92 259.8 189.818 257.4ZM259.636 232.4C260.137 228.9 266.147 226.2 272.158 226.2C278.168 226.2 283.877 228.5 286.883 231.5C289.387 234 290.188 237 291.891 239.7C293.794 242.7 296.298 245.2 299.203 247.2C301.006 248.5 303.01 249.5 305.113 250.1C310.322 251.7 316.633 251 322.543 250.7C326.75 250.4 330.957 250.5 335.164 251.1C339.271 251.8 343.178 253.1 345.381 255.2C346.884 256.7 348.186 259 346.684 260.5C345.081 262 341.675 262 339.171 261C338.67 260.9 338.169 260.8 337.668 260.8C333.962 260.8 330.256 261.3 326.65 262.3C322.543 263.5 319.337 265.6 315.231 266.9C311.124 268.3 305.714 268.8 302.108 267C297.1 264.5 299.804 259.5 296.699 256.1C294.495 253.7 289.587 252.5 285.079 251.8C281.473 251.2 277.867 250.9 274.161 250.9C270.655 251 267.149 251.4 263.643 251.3C260.338 251.2 257.032 250.3 254.027 248.8C252.224 247.8 250.822 246.4 251.423 245.1C252.424 243.1 256.932 242.6 259.035 241C262.341 238.7 259.236 235.4 259.636 232.4ZM257.132 288.3C259.737 285.7 260.237 282.5 260.738 279.5C261.64 274.2 262.441 269 263.343 263.7C263.443 261.6 264.344 259.6 265.747 258C267.95 255.8 272.458 254.3 276.966 254.5C281.473 254.7 285.68 256.3 287.383 258.7C288.285 260.3 288.886 261.9 289.186 263.7C290.188 266.5 292.091 268.8 294.495 270.5C296.098 271.7 298.101 273.3 296.799 274.6C295.497 275.9 292.091 275.7 289.487 275.9C285.58 276.1 281.774 277.8 279.069 280.7C277.366 283 276.265 285.6 275.864 288.5C275.463 290.5 274.962 292.4 274.562 294.4C274.361 295.7 273.86 297 273.059 298C271.156 300.2 266.548 301.4 262.241 301.1C258.034 300.8 253.726 299.4 251.823 297.2C251.623 296.9 251.423 296.6 251.322 296.3C250.822 294.4 251.923 293.3 253.526 291.5C254.628 290.5 256.03 289.5 257.132 288.3ZM265.346 305.7C267.049 305.1 268.852 304.6 270.755 304.2C276.265 301.2 280.171 297.1 281.574 292.8C282.375 290.4 282.475 287.9 283.377 285.5C284.478 282.6 286.682 280.4 289.587 279.3C290.088 279.1 290.689 278.9 291.29 278.9C292.091 278.9 292.893 279 293.594 279.3C298.102 280.7 303.01 282.4 304.412 285.2C305.614 287.6 304.112 290.1 301.708 292.1C299.304 294.1 296.298 295.9 296.699 298.2C297 299.7 298.703 300.9 300.706 301.8C305.214 303.8 311.023 304.3 316.032 305.8C321.04 307.3 325.748 310.3 324.146 313.4C322.042 317.4 312.025 318 308.319 321.6C306.816 323 306.516 324.7 304.913 326C302.309 328.2 296.799 328.7 292.492 327.8C288.686 327 285.079 325.2 282.074 322.8C279.37 320.5 276.565 318.4 273.56 316.5C270.755 314.9 267.349 313.7 265.046 311.8C262.842 310 262.241 307.2 265.346 305.7ZM360.808 268C358.604 266.9 356.701 265.4 356.3 263.8C355.899 262.2 356.901 260.6 356.6 258.9C356.4 257.3 354.697 255.6 353.095 254.2C350.791 251.9 347.986 250.1 344.881 248.9C340.774 247.7 336.567 247.1 332.359 247C328.152 246.9 323.845 246.3 319.838 245.2C316.132 243.9 313.327 241.3 314.629 238.9C315.631 237.6 316.733 236.5 317.935 235.6C321.241 232.4 320.84 228.1 316.933 225.1C315.832 224.4 314.83 223.6 313.928 222.7C313.127 221.5 313.127 219.9 313.928 218.6C314.529 217.3 315.331 216.2 316.433 215.4C319.638 212.7 325.548 211.4 331.258 211.3C339.071 211.2 347.485 213.6 349.889 217.9C351.893 221.6 348.988 225.6 349.889 229.5C351.091 234.5 358.303 238.2 365.015 241.4L386.952 251.9C395.266 255.9 404.181 260.5 405.483 266.6C405.884 268.1 405.483 269.7 404.481 270.9C402.678 273 398.572 274.1 394.665 274.5C387.453 275.3 382.544 273.9 375.633 272.4C374.13 272.1 372.527 271.8 371.726 271.5C371.325 271.4 370.023 271.1 370.023 271.1C366.617 270.5 363.612 269.5 360.808 268ZM342.677 185.3C348.186 184.6 353.796 185.2 359.105 186.9C365.315 188.8 371.125 191.7 376.434 195.3C379.84 197.6 383.045 200.2 384.247 203.2C384.748 204.1 384.648 205.2 384.047 206.1C383.145 207.1 382.144 207.8 380.942 208.4C378.037 209.8 375.332 211.8 373.128 214.1C371.225 216.3 370.424 218.9 371.726 221.2C373.028 223.5 376.634 225.6 378.738 227.9C380.942 230.2 381.242 233.6 377.436 235C376.134 235.4 374.831 235.6 373.529 235.7C369.222 236.1 364.814 235.6 360.707 234.2C359.005 233.5 357.602 232.3 356.701 230.7C355.198 228.1 355.298 225 355.398 222C355.499 219.3 355.499 216.4 353.996 214C352.794 212 350.49 210.9 349.388 208.8C348.787 207.3 348.286 205.8 348.086 204.2C346.283 197.4 335.565 198.7 333.662 192.3C332.56 189.3 337.268 186.1 342.677 185.3ZM270.956 181.6C270.956 178 271.757 174.1 274.762 171.7C276.365 170.5 282.776 167.6 279.069 165.2C276.765 163.7 272.057 164.3 269.453 163C266.748 161.7 267.55 159 270.254 157.7C273.46 156.5 276.866 156 280.271 156.3C289.787 156.7 299.003 159.4 305.214 163.5C307.417 165.4 309.922 166.9 312.526 168C317.434 169.7 324.045 169 328.854 170.8C333.261 172.5 334.864 175.8 334.764 178.9C334.764 181.2 333.261 183.2 331.157 183.9C329.855 184.4 328.253 184.6 327.151 185.2C326.149 185.7 325.348 186.5 324.847 187.5C323.545 190.4 325.147 193.6 328.954 195.6C330.957 196.6 333.361 197.4 335.565 198.3C337.368 199.1 339.071 200.1 340.573 201.4C342.276 202.9 343.178 205.1 340.874 206.3C339.672 206.9 338.37 207.2 337.067 207.3C330.757 208.2 323.244 208.9 318.636 206.3C315.23 204.4 314.93 201.3 312.626 198.9C311.124 197.4 309.32 196.2 307.317 195.2C299.203 191.1 290.388 188.5 281.373 187.5C277.967 187.1 274.061 186.7 272.358 185C271.256 184.1 270.855 182.9 270.956 181.6ZM275.263 190.5C281.373 191.1 287.383 192.6 292.993 194.8C301.107 197.7 309.922 201 312.426 206.3C312.826 206.9 312.927 207.7 312.726 208.4C312.326 209.1 311.725 209.8 311.023 210.3C307.017 213.5 303.11 217.1 303.21 221.1C303.31 224 305.614 226.8 308.519 229.2C309.821 230.3 311.424 231.7 310.723 233C310.222 234 308.619 234.6 307.918 235.5C306.015 237.6 308.319 240.7 305.113 242.1C302.208 243.1 299.003 242.3 296.899 240.1C295.597 238.2 296.198 236.1 295.898 234.1C295.397 230.9 292.692 227.9 288.385 225.9C285.58 224.6 281.674 223.1 282.275 221C282.575 220.5 282.876 220 283.276 219.5C284.979 217.1 283.677 214 280.071 212.4C276.064 210.9 272.158 209.2 268.351 207.2C265.346 205.9 262.641 204.1 260.237 201.9C258.334 199.8 257.533 197.3 259.035 195.1C261.54 191.8 268.852 190.1 275.263 190.5ZM187.214 174.7C189.317 172.3 192.022 170.5 195.027 169.3C199.735 167.2 204.744 166 209.952 166C217.665 166 224.477 168.9 230.086 172.1C234.294 174.5 238.701 177.2 244.611 177.7C248.618 178 252.725 177.1 256.732 177.7C262.942 178.5 266.548 183.1 263.443 186.3C261.94 187.6 260.338 188.7 258.635 189.6C255.329 191.7 252.625 194.2 251.923 197C251.222 199.8 252.725 202.9 256.331 204.7C258.434 205.8 263.543 206.6 262.241 208.1C260.137 210.4 253.526 207.8 249.319 207C246.114 206.3 242.708 206 239.402 206.3C234.995 206.7 230.587 207.7 226.18 206.8C222.974 206.2 218.867 204.8 217.365 201.6C216.163 199 217.365 196.2 215.662 193.7C213.458 190.4 207.248 188.8 201.538 187.6C195.828 186.4 189.518 184.9 186.913 181.7C185.411 179.5 185.511 176.6 187.214 174.7ZM180.703 199.3C182.706 196.2 187.214 193.8 192.523 192.8C198.433 191.7 206.046 192.9 208.149 196.3C208.65 197.2 208.85 198.2 209.051 199.2C209.952 203.9 214.26 208.9 222.073 210.5C227.182 211.5 232.891 210.9 238.2 210.5C248.217 210 258.234 210.8 267.95 213C272.759 214.1 278.068 216.2 277.867 219.2C277.667 221.2 274.762 222.9 271.456 223.6C268.051 224.2 264.445 224.4 260.939 224.3C258.835 225.1 254.628 226.6 253.726 228.3C253.025 229.7 253.726 231.1 254.127 232.6C254.728 234.2 253.927 236 252.324 236.5C250.22 237.1 248.017 237 246.013 236.2C244.411 235.5 242.808 234.5 241.406 233.4C236.898 230.5 231.789 228.7 226.48 228.2C218.867 227.4 210.954 228.9 203.341 228C199.435 227.6 195.728 226.4 192.323 224.4C191.421 223.8 190.519 223.2 190.519 222.4C190.519 221.1 193.024 220.2 194.025 219C195.728 216.9 192.623 214.7 189.718 213.1C187.014 211.8 184.509 210.3 182.205 208.4C179.3 205.9 178.699 202.4 180.703 199.3ZM130.418 241.5C128.014 240.6 125.91 239.2 124.207 237.3C122.404 235.6 122.304 232.8 124.007 230.9C126.611 227.9 132.922 226.7 138.532 225.6C144.141 224.5 150.251 222.8 151.854 219.5C153.457 216.2 148.949 212.6 145.944 209.4C142.939 206.2 141.036 201.9 143.239 198.2C145.443 194.5 152.555 191.8 158.966 192.9C162.372 193.6 165.577 195.1 168.382 197.3C169.885 198.2 171.087 199.4 171.788 200.9C171.988 202 172.088 203 172.088 204.1C172.489 206.8 175.795 209.1 179.1 211.1C182.506 213 186.112 215.3 184.81 217.8C184.309 218.5 183.708 219.2 183.107 219.8C181.404 221.8 182.005 224.4 184.409 226.1C187.214 228.1 192.222 229 194.326 231.3C196.429 233.6 194.025 236.9 189.618 237.7C185.21 238.5 180.302 237 176.195 238.1C172.088 239.2 170.486 242 166.479 242.9C162.472 243.8 158.465 242.2 154.458 241.4C150.652 240.7 146.846 240.7 143.039 241.3C140.835 241.7 138.832 242.2 136.628 242.4C134.625 242.6 132.421 242.3 130.418 241.5ZM147.647 300.1C143.139 299.3 139.032 297.2 135.827 294.1C134.825 293.2 134.024 292 133.623 290.6C133.022 287.7 136.127 284.9 139.533 282.6C142.939 280.3 146.846 278.2 148.749 275.5C150.452 273 150.151 269.7 148.048 267.6C144.742 263.9 137.329 261.6 134.625 257.7C131.92 253.8 135.026 249 141.236 247.1C145.543 245.9 150.051 245.7 154.458 246.3C160.969 247.1 167.18 249.2 172.789 252.5C176.796 254.9 180.302 258.2 178.9 261.4C177.698 264.3 172.589 266.7 172.689 269.8C172.689 272.4 176.496 274.4 180.202 275.8C183.908 277.2 188.115 278.6 189.918 281C191.421 283 190.92 285.3 191.922 287.4C194.827 293.6 208.55 295.7 214.36 301.2C215.161 301.9 215.662 303 214.56 303.5C213.959 303.7 213.258 303.8 212.557 303.8C209.452 303.8 206.146 304.5 203.842 302.6C201.538 300.7 201.037 298.5 198.733 296.7C195.027 293.8 188.917 292 182.806 291.9C176.997 291.7 171.287 293.1 166.278 296.1C165.076 296.9 164.075 297.8 162.773 298.5C158.866 300.6 152.756 301.1 147.647 300.1ZM236.097 332.4C232.991 334 228.784 333 224.577 333.3C222.874 333.4 221.071 333.1 219.268 333.1C217.465 333.1 215.462 333.5 214.961 334.5C214.76 335 214.861 335.7 215.362 336.1C216.163 337.2 217.665 338.1 218.567 339.1C219.468 340.1 219.869 341.5 218.567 342.5C216.964 343.6 213.959 343.4 211.655 342.8C206.346 341.4 202.039 337.3 200.336 332.1C198.733 327.9 197.531 323.3 192.523 320.1C188.216 317.3 181.705 316 175.995 314.2C170.285 312.4 164.776 309.3 165.177 305.5C165.377 303.6 166.98 301.8 169.083 300.4C172.789 297.8 176.997 296.2 181.404 295.7C186.413 295.2 191.922 296.1 194.927 298.4C196.93 300 197.531 301.9 198.733 303.7C200.136 305.9 202.44 307.5 205.044 307.9C209.251 308.6 213.759 306.8 218.166 307.2C221.873 307.7 225.278 309.7 227.482 312.8C230.287 316.2 233.092 319.5 235.896 322.9C237.198 324.2 238.2 325.9 238.801 327.7C239.102 329.7 238 331.7 236.097 332.4ZM237.799 319.3C236.798 317.6 235.996 315.8 235.395 313.9C232.49 307.2 225.779 301.1 216.564 296.7C211.856 294.5 206.446 292.6 202.74 289.8C199.034 287 197.431 282.8 201.238 280C205.044 277.2 212.857 277.1 218.667 278.5C224.477 279.9 228.784 282.8 233.893 285C235.496 285.8 237.198 286.2 239.002 286.3C243.91 286.5 246.514 282.4 251.322 282C251.823 282 253.426 282 254.027 282.8C255.129 284.3 253.326 287.2 251.723 288.9C250.12 290.6 247.616 291.9 245.813 293.5C244.01 295.1 242.908 297.2 244.411 298.9C246.815 301.5 254.227 301.7 256.331 304.4C258.434 307.1 254.127 309.7 254.227 312.5C254.227 316.3 261.74 319.4 259.937 323C258.935 325 255.129 326.2 251.623 326.1C248.317 326 245.212 325 242.407 323.3C240.504 322.5 239.002 321.1 237.799 319.3ZM336.266 342C331.558 346.1 322.643 348.2 314.129 348.4C307.417 348.6 299.905 347.9 294.796 350.4C293.694 351 292.592 351.6 291.49 352.1C288.886 352.8 286.081 353 283.377 352.6C279.169 352.2 274.562 351.3 272.759 349.2C271.356 347.6 271.857 345.7 271.857 343.8C272.057 341.6 270.555 339.6 268.451 339C265.747 338.1 262.541 338.8 259.536 339C255.529 339.4 251.523 339.1 247.616 338.2C244.11 337.3 240.805 335.6 240.905 333.4C241.005 331.5 243.81 329.9 247.115 329.4C250.421 329 253.726 329.2 256.932 329.8L257.833 329.6C261.339 328.1 263.743 325.9 264.244 323.4C264.244 322.2 264.545 321 264.945 319.9C265.847 318.5 267.45 317.7 269.153 317.8C271.156 317.9 272.859 318.9 273.961 320.6C276.164 324.1 279.169 327 282.575 329.3C287.283 332.1 292.893 333.1 298.302 332.2C301.507 331.4 304.613 330.3 307.517 328.9C312.826 327 318.336 326.3 323.945 326.6C327.251 326.7 330.556 327.4 333.662 328.6C340.373 331.6 341.074 337.9 336.266 342ZM400.375 318C399.473 320 397.269 321.8 394.865 323.4C393.062 324.7 391.059 325.6 388.955 326.1C385.95 326.7 382.945 326.6 380.04 325.9C377.436 325.4 374.932 324.5 372.527 323.3C370.624 322 368.521 321.1 366.317 320.5C362.11 319.6 357.101 322 357.402 324.5C357.702 326.7 361.208 328.5 361.409 330.7C361.609 332.6 359.205 334.3 356.901 335.7C355.198 337 353.195 337.7 350.991 337.9C348.988 338 346.984 337.2 345.482 335.9C344.48 334.8 343.679 333.5 342.977 332.2C341.074 329.5 338.47 327.4 335.365 326.1L334.663 325.9C331.358 323.7 325.448 324.2 320.439 323.9C319.438 323.9 318.135 323.7 317.835 323.1C317.735 322.8 317.735 322.5 317.935 322.2C319.838 319 328.253 317.9 329.154 314.6C329.455 313.6 329.054 312.6 329.655 311.7C330.556 310.3 333.461 309.8 335.966 309.7C338.47 309.8 341.074 309.7 343.578 309.5C346.984 308.9 349.589 307 349.689 304.9C349.689 302 345.181 299.2 346.584 296.4C347.485 294.7 350.49 293.6 353.495 293.1C356.5 292.6 359.706 292.7 362.811 292.5C364.814 292.3 366.818 292.2 368.821 292.3C372.527 292.7 376.033 293.9 379.139 295.9C384.648 299.1 389.857 302.8 394.665 307C398.672 310.2 402.077 314.1 400.375 318ZM465.385 310.8C462.58 312.7 457.872 313.5 453.565 313.9C448.556 314.3 443.548 312.7 438.739 311.3C434.332 310 429.925 308.6 425.417 307.6C423.714 307.2 422.111 307.1 421.11 308.8C420.308 310.1 420.909 311.8 419.607 313C418.004 314.5 413.897 314.5 411.493 313.4C409.49 312.4 407.687 310.9 406.385 309C400.675 302.4 391.86 296.7 381.142 292.6C379.339 292.1 377.636 291.2 376.134 290C375.232 288.9 375.032 287.4 375.432 286C375.833 283.7 376.134 281.4 376.534 279C376.534 278.4 376.835 277.8 377.336 277.4C378.638 276.7 380.04 276.5 381.543 276.6C387.252 276.8 392.862 278.5 398.471 277.8C402.979 277.3 406.485 275.3 410.191 273.7C414.298 271.9 418.706 270.6 423.113 269.8C429.123 268.7 436.035 268.3 441.544 270C447.054 271.7 450.159 276.3 446.453 279.3C445.251 280.3 443.548 281 442.546 282C440.342 284.2 442.045 287 444.75 289.1C448.356 291.5 452.262 293.6 456.269 295.3C460.276 297.2 464.283 299.4 466.587 302.1C468.79 304.9 468.79 308.5 465.385 310.8Z" fill="white"/>
</g>
<path d="M507.9 80.3035L477.3 62.6035C472.1 59.6035 465.6 59.6035 460.4 62.6035L429.8 80.3035H376.9V128.204C376.9 130.104 377.8 132.004 379.7 133.104L460.4 179.704C465.6 182.704 472.1 182.704 477.3 179.704L558 133.104C559.9 132.004 560.8 130.104 560.8 128.204V80.3035H507.9Z" fill="#E0E8F7"/>
<path d="M507.9 80.3035L477.3 62.6035C472.1 59.6035 465.6 59.6035 460.4 62.6035L429.8 80.3035H376.9V128.204C376.9 130.104 377.8 132.004 379.7 133.104L460.4 179.704C465.6 182.704 472.1 182.704 477.3 179.704L558 133.104C559.9 132.004 560.8 130.104 560.8 128.204V80.3035H507.9Z" stroke="#223893" stroke-miterlimit="10" stroke-linecap="round" stroke-linejoin="round"/>
<path d="M460.4 131.803L379.7 85.2027C375.9 83.0027 375.9 77.6027 379.7 75.4027L460.4 28.8027C465.6 25.8027 472.1 25.8027 477.3 28.8027L558.1 75.4027C561.9 77.6027 561.9 83.0027 558.1 85.2027L477.4 131.803C472.1 134.803 465.7 134.803 460.4 131.803Z" fill="white"/>
<path d="M460.4 131.803L379.7 85.2027C375.9 83.0027 375.9 77.6027 379.7 75.4027L460.4 28.8027C465.6 25.8027 472.1 25.8027 477.3 28.8027L558.1 75.4027C561.9 77.6027 561.9 83.0027 558.1 85.2027L477.4 131.803C472.1 134.803 465.7 134.803 460.4 131.803Z" stroke="#223893" stroke-miterlimit="10" stroke-linecap="round" stroke-linejoin="round"/>
<path d="M380.6 109.7C382.8 108.6 385.7 108.9 388.9 110.7C388.9 110.7 388.9 110.7 389 110.7C395.9 114.7 401.4 124.3 401.4 132.2V132.3C401.4 136.1 400.1 138.8 398 140.1L411.7 132.3C412.4 130.9 412.7 129.1 412.7 127V126.9C412.7 118.3 406.7 107.9 399.3 103.7C399.3 103.7 399.3 103.7 399.2 103.7C397.4 102.7 395.8 102.1 394.2 102L380.6 109.7Z" fill="#3D93FA"/>
<path d="M380.6 109.7C382.8 108.6 385.7 108.9 388.9 110.7C388.9 110.7 388.9 110.7 389 110.7C395.9 114.7 401.4 124.3 401.4 132.2V132.3C401.4 136.1 400.1 138.8 398 140.1L411.7 132.3C412.4 130.9 412.7 129.1 412.7 127V126.9C412.7 118.3 406.7 107.9 399.3 103.7C399.3 103.7 399.3 103.7 399.2 103.7C397.4 102.7 395.8 102.1 394.2 102L380.6 109.7Z" stroke="#223893" stroke-miterlimit="10" stroke-linecap="round" stroke-linejoin="round"/>
<path d="M376.6 117.901C376.6 125.801 382.2 135.401 389 139.401C392.3 141.301 395.4 141.601 397.6 140.401L398 140.201C400.1 138.801 401.4 136.201 401.4 132.401V132.201C401.4 124.301 395.9 114.701 389 110.701C389 110.701 389 110.701 388.9 110.701C385.7 108.901 382.8 108.601 380.6 109.701C380.5 109.701 380.5 109.701 380.4 109.801L380 110.101C377.9 111.401 376.6 114.101 376.6 117.901Z" fill="#80C0FF"/>
<path d="M376.6 117.901C376.6 125.801 382.2 135.401 389 139.401C392.3 141.301 395.4 141.601 397.6 140.401L398 140.201C400.1 138.801 401.4 136.201 401.4 132.401V132.201C401.4 124.301 395.9 114.701 389 110.701C389 110.701 389 110.701 388.9 110.701C385.7 108.901 382.8 108.601 380.6 109.701C380.5 109.701 380.5 109.701 380.4 109.801L380 110.101C377.9 111.401 376.6 114.101 376.6 117.901Z" stroke="#223893" stroke-miterlimit="10" stroke-linecap="round" stroke-linejoin="round"/>
<path d="M380 110.099L380.6 109.699" stroke="#223893" stroke-miterlimit="10" stroke-linecap="round" stroke-linejoin="round"/>
<path d="M398 140.1L397.5 140.4" stroke="#223893" stroke-miterlimit="10" stroke-linecap="round" stroke-linejoin="round"/>
<path d="M396.099 129.899C396.099 131.199 395.899 132.299 395.399 133.099C394.199 135.599 391.399 136.299 388.199 134.399C383.799 131.899 380.299 125.799 380.299 120.699C380.299 116.999 382.199 114.899 384.999 115.099C385.999 115.199 386.999 115.499 388.099 116.199C392.499 118.699 396.099 124.899 396.099 129.899Z" fill="#80C0FF"/>
<path d="M396.099 129.899C396.099 131.199 395.899 132.299 395.399 133.099C394.199 135.599 391.399 136.299 388.199 134.399C383.799 131.899 380.299 125.799 380.299 120.699C380.299 116.999 382.199 114.899 384.999 115.099C385.999 115.199 386.999 115.499 388.099 116.199C392.499 118.699 396.099 124.899 396.099 129.899Z" stroke="#223893" stroke-miterlimit="10" stroke-linecap="round" stroke-linejoin="round"/>
<path d="M396.098 129.9C396.098 131.2 395.898 132.3 395.398 133.1C394.398 133 393.398 132.7 392.298 132C387.898 129.5 384.398 123.4 384.398 118.3C384.398 117 384.598 115.9 384.998 115C385.998 115.1 386.998 115.4 388.098 116.1C392.498 118.7 396.098 124.9 396.098 129.9Z" fill="#3D93FA"/>
<path d="M396.098 129.9C396.098 131.2 395.898 132.3 395.398 133.1C394.398 133 393.398 132.7 392.298 132C387.898 129.5 384.398 123.4 384.398 118.3C384.398 117 384.598 115.9 384.998 115C385.998 115.1 386.998 115.4 388.098 116.1C392.498 118.7 396.098 124.9 396.098 129.9Z" stroke="#223893" stroke-miterlimit="10" stroke-linecap="round" stroke-linejoin="round"/>
<path d="M422.6 134.003C424.8 132.903 427.7 133.203 430.9 135.003C430.9 135.003 430.9 135.003 431 135.003C437.9 139.003 443.4 148.603 443.4 156.503V156.603C443.4 160.403 442.1 163.103 440 164.403L453.7 156.603C454.4 155.203 454.7 153.403 454.7 151.303V151.203C454.7 142.603 448.7 132.203 441.3 128.003C441.3 128.003 441.3 128.003 441.2 128.003C439.4 127.003 437.8 126.403 436.2 126.303L422.6 134.003Z" fill="#3D93FA"/>
<path d="M422.6 134.003C424.8 132.903 427.7 133.203 430.9 135.003C430.9 135.003 430.9 135.003 431 135.003C437.9 139.003 443.4 148.603 443.4 156.503V156.603C443.4 160.403 442.1 163.103 440 164.403L453.7 156.603C454.4 155.203 454.7 153.403 454.7 151.303V151.203C454.7 142.603 448.7 132.203 441.3 128.003C441.3 128.003 441.3 128.003 441.2 128.003C439.4 127.003 437.8 126.403 436.2 126.303L422.6 134.003Z" stroke="#223893" stroke-miterlimit="10" stroke-linecap="round" stroke-linejoin="round"/>
<path d="M418.6 142.204C418.6 150.104 424.2 159.704 431 163.704C434.3 165.604 437.4 165.904 439.6 164.704L440 164.504C442.1 163.104 443.4 160.504 443.4 156.704V156.504C443.4 148.604 437.9 139.004 431 135.004C431 135.004 431 135.004 430.9 135.004C427.7 133.204 424.8 132.904 422.6 134.004C422.5 134.004 422.5 134.004 422.4 134.104L422 134.404C419.9 135.704 418.6 138.404 418.6 142.204Z" fill="#80C0FF"/>
<path d="M418.6 142.204C418.6 150.104 424.2 159.704 431 163.704C434.3 165.604 437.4 165.904 439.6 164.704L440 164.504C442.1 163.104 443.4 160.504 443.4 156.704V156.504C443.4 148.604 437.9 139.004 431 135.004C431 135.004 431 135.004 430.9 135.004C427.7 133.204 424.8 132.904 422.6 134.004C422.5 134.004 422.5 134.004 422.4 134.104L422 134.404C419.9 135.704 418.6 138.404 418.6 142.204Z" stroke="#223893" stroke-miterlimit="10" stroke-linecap="round" stroke-linejoin="round"/>
<path d="M422 134.402L422.6 134.002" stroke="#223893" stroke-miterlimit="10" stroke-linecap="round" stroke-linejoin="round"/>
<path d="M440 164.402L439.5 164.702" stroke="#223893" stroke-miterlimit="10" stroke-linecap="round" stroke-linejoin="round"/>
<path d="M438.099 154.202C438.099 155.502 437.899 156.602 437.399 157.402C436.199 159.902 433.399 160.602 430.199 158.702C425.799 156.202 422.299 150.102 422.299 145.002C422.299 141.302 424.199 139.202 426.999 139.402C427.999 139.502 428.999 139.802 430.099 140.502C434.499 143.002 438.099 149.202 438.099 154.202Z" fill="#80C0FF"/>
<path d="M438.099 154.202C438.099 155.502 437.899 156.602 437.399 157.402C436.199 159.902 433.399 160.602 430.199 158.702C425.799 156.202 422.299 150.102 422.299 145.002C422.299 141.302 424.199 139.202 426.999 139.402C427.999 139.502 428.999 139.802 430.099 140.502C434.499 143.002 438.099 149.202 438.099 154.202Z" stroke="#223893" stroke-miterlimit="10" stroke-linecap="round" stroke-linejoin="round"/>
<path d="M438.098 154.203C438.098 155.503 437.898 156.603 437.398 157.403C436.398 157.303 435.398 157.003 434.298 156.303C429.898 153.803 426.398 147.703 426.398 142.603C426.398 141.303 426.598 140.203 426.998 139.303C427.998 139.403 428.998 139.703 430.098 140.403C434.498 143.003 438.098 149.203 438.098 154.203Z" fill="#3D93FA"/>
<path d="M438.098 154.203C438.098 155.503 437.898 156.603 437.398 157.403C436.398 157.303 435.398 157.003 434.298 156.303C429.898 153.803 426.398 147.703 426.398 142.603C426.398 141.303 426.598 140.203 426.998 139.303C427.998 139.403 428.998 139.703 430.098 140.403C434.498 143.003 438.098 149.203 438.098 154.203Z" stroke="#223893" stroke-miterlimit="10" stroke-linecap="round" stroke-linejoin="round"/>
<path opacity="0.7" d="M384 118.199C384 118.199 381 118.199 372 124.199C363 130.199 353 146.199 350 159.199C347 172.199 344 193.199 344 193.199L363 204.199L368.2 206.399C368.2 206.399 371 170.199 378 157.199C385 144.199 387.5 136.699 391.5 135.699C395.5 134.699 395.5 130.699 395.5 130.699C395.5 130.699 395.5 128.699 395.5 127.699C395.5 126.599 394 123.699 393.5 122.699C392.5 120.699 390.8 118.599 389.5 117.699L387.5 116.699L384 118.199Z" fill="url(#paint0_linear_1290_14411)"/>
<path opacity="0.7" d="M426 142.002C426 142.002 423 142.002 414 148.002C405 154.002 395 170.002 392 183.002C389 196.002 387.5 219 387.5 219L405 228.002L414 233C414 233 413 194.002 420 181.002C427 168.002 429.5 160.502 433.5 159.502C437.5 158.502 437.5 154.502 437.5 154.502C437.5 154.502 437.5 153.002 437.5 152.002C437.5 151.002 436 148.002 435.5 147.002C434.5 145.002 432.8 142.902 431.5 142.002L429.5 140.502L426 142.002Z" fill="url(#paint1_linear_1290_14411)"/>
<path fill-rule="evenodd" clip-rule="evenodd" d="M416.132 333.408C416.838 332.946 417.729 332.871 418.502 333.21L458.502 350.71C459.767 351.263 460.344 352.737 459.79 354.002C459.237 355.267 457.763 355.844 456.498 355.29L420 339.323V353C420 354.381 418.881 355.5 417.5 355.5C416.119 355.5 415 354.381 415 353V335.5C415 334.656 415.426 333.87 416.132 333.408Z" fill="#828DF9" stroke="#223893" stroke-linecap="round" stroke-linejoin="round"/>
<g style="mix-blend-mode:lighten">
<path fill-rule="evenodd" clip-rule="evenodd" d="M461 352.535V363.4C461 365.057 459.657 366.4 458 366.4C456.343 366.4 455 365.057 455 363.4V352.766C456.072 353.334 457.341 353.759 458.5 353.501C459.496 353.28 460.32 352.936 461 352.535Z" fill="white" fill-opacity="0.28"/>
</g>
<path d="M541.1 382.899V366.199H443.8V382.099C443.6 383.099 443.5 384.099 443.5 385.199C443.5 387.199 443.9 389.299 444.6 391.299C446.5 396.399 450.9 401.199 457.8 405.199C476.9 416.199 507.8 416.199 526.9 405.199C533.8 401.299 538.1 396.399 540.1 391.299C540.9 389.299 541.2 387.299 541.2 385.199C541.2 384.399 541.2 383.599 541.1 382.899Z" fill="#E0E8F7" stroke="#223893" stroke-miterlimit="10"/>
<path d="M541.2 363.099C541.2 365.099 540.8 367.199 540.1 369.199C538.2 374.299 533.8 379.099 526.9 383.099C507.8 394.099 476.9 394.099 457.8 383.099C451 379.099 446.6 374.299 444.6 369.199C443.8 367.199 443.5 365.199 443.5 363.099C443.5 355.899 448.3 348.699 457.8 343.199C476.9 332.199 507.8 332.199 526.9 343.199C536.5 348.699 541.2 355.899 541.2 363.099Z" fill="white" stroke="#223893" stroke-miterlimit="10"/>
<path d="M524.4 362C524.4 363.2 524.2 364.4 523.7 365.6C522.5 368.6 519.6 371.5 515.2 373.9C502.9 380.5 483 380.5 470.7 373.9C466.3 371.5 463.5 368.6 462.2 365.6C461.7 364.4 461.5 363.2 461.5 362C461.5 357.7 464.6 353.4 470.7 350.1C483 343.5 502.9 343.5 515.2 350.1C521.3 353.4 524.4 357.7 524.4 362Z" fill="#A5BFFF" stroke="#223893" stroke-miterlimit="10"/>
<path d="M515.1 354.499C502.8 347.899 482.9 347.899 470.6 354.499C465.5 357.199 462.5 360.699 461.6 364.199C461.7 364.699 461.9 365.199 462.1 365.599C463.3 368.599 466.2 371.499 470.6 373.899C482.9 380.499 502.8 380.499 515.1 373.899C519.5 371.499 522.3 368.599 523.6 365.599C523.8 365.099 523.9 364.599 524.1 364.199C523.2 360.599 520.2 357.199 515.1 354.499Z" fill="#7887F7" stroke="#223893" stroke-miterlimit="10"/>
<path d="M524.6 295.725C524.7 295.225 524.8 294.625 524.8 294.125C524.8 289.725 521.7 285.425 515.5 282.025C503 275.325 482.8 275.325 470.3 282.025C464.1 285.325 461 289.725 461 294.125C461 294.625 461.1 295.225 461.2 295.725V360.325C461 360.925 461 361.525 461 362.025C461 363.225 461.2 364.525 461.7 365.725C463 368.825 465.8 371.725 470.3 374.125C482.8 380.825 502.9 380.825 515.4 374.125C519.9 371.725 522.7 368.825 524 365.725C524.5 364.525 524.7 363.225 524.7 362.025C524.7 361.425 524.6 360.925 524.5 360.325V295.725H524.6Z" fill="url(#paint2_linear_1290_14411)"/>
<path d="M512.699 312H474.699V363C474.699 363.8 474.899 364.6 475.199 365.4C475.899 367.4 477.599 369.2 480.299 370.7C487.699 374.9 499.599 374.9 506.899 370.7C509.499 369.2 511.199 367.3 511.999 365.4C512.299 364.6 512.699 363.8 512.699 363V312Z" fill="url(#paint3_linear_1290_14411)"/>
<path d="M522.311 306.335C522.673 305.248 522.793 304.162 522.793 303.076C522.793 302.955 522.793 302.834 522.793 302.714C522.793 302.593 522.793 302.593 522.793 302.472C522.793 302.472 522.793 302.472 522.793 302.352C522.793 302.231 522.793 302.11 522.673 301.99V301.869C522.552 301.145 522.311 300.541 521.948 299.938C521.948 299.938 521.949 299.817 521.828 299.817C521.828 299.817 521.828 299.696 521.707 299.696C521.707 299.696 521.707 299.696 521.707 299.576C521.586 299.334 521.466 299.214 521.224 298.972C521.224 298.972 521.224 298.972 521.224 298.851L521.104 298.731C520.983 298.61 520.862 298.489 520.862 298.489L520.742 298.369C520.5 298.127 520.138 297.886 519.897 297.765C519.897 297.765 519.897 297.765 519.776 297.765C519.655 297.644 519.414 297.644 519.293 297.524C519.293 297.524 519.172 297.524 519.172 297.403C518.931 297.282 518.69 297.282 518.569 297.162C518.207 297.041 517.724 297.041 517.362 297.041H517.241C516.034 297.041 514.827 297.403 513.741 298.007C513.741 298.007 513.741 298.007 513.62 298.007C512.776 298.489 512.051 299.093 511.448 299.817C511.448 299.817 511.448 299.817 511.327 299.938L511.207 300.058L511.086 300.179C510.965 300.3 510.844 300.421 510.844 300.541C510.844 300.662 510.724 300.662 510.724 300.783L510.603 300.903C510.603 300.903 510.603 300.903 510.603 301.024L510.482 301.145C510.362 301.386 510.241 301.507 510.12 301.748C510.12 301.748 510.12 301.869 510 301.869C509.879 302.231 509.758 302.593 509.637 302.955C509.155 304.524 509.034 306.214 509.396 307.542V307.662C509.517 308.024 509.637 308.266 509.758 308.507C509.758 308.507 509.758 308.628 509.879 308.628C510 308.749 510 308.99 510.12 309.111C510.12 309.111 510.12 309.231 510.241 309.231C510.241 309.231 510.241 309.352 510.362 309.352C510.482 309.352 510.482 309.473 510.482 309.473C510.482 309.593 510.603 309.593 510.603 309.714C510.603 309.835 510.724 309.835 510.724 309.956C510.844 310.076 510.844 310.197 510.965 310.318L511.086 310.438L511.207 310.559L511.327 310.68C511.327 310.68 511.327 310.68 511.448 310.68C511.689 310.921 511.931 311.042 512.172 311.162C512.172 311.162 512.172 311.162 512.293 311.162C512.413 311.162 512.413 311.283 512.534 311.283C512.896 311.525 513.379 311.645 513.862 311.766C514.586 311.887 515.31 312.007 516.034 311.887H516.155C516.396 311.887 516.638 311.766 516.879 311.766C516.879 311.766 516.879 311.766 517 311.766C517.121 311.766 517.241 311.645 517.362 311.645H517.483C517.483 311.645 517.603 311.645 517.603 311.525C517.724 311.525 517.724 311.404 517.845 311.404C518.086 311.283 518.448 311.162 518.69 310.921L518.81 310.8L518.931 310.68L519.052 310.559L519.172 310.438L519.293 310.318L519.414 310.197C519.414 310.197 519.414 310.197 519.535 310.197L519.655 310.076C519.776 309.956 519.897 309.956 519.897 309.835C520.017 309.714 520.017 309.714 520.138 309.593C520.259 309.473 520.259 309.473 520.379 309.352C520.621 309.111 520.862 308.869 520.983 308.628C520.983 308.507 521.104 308.507 521.104 308.386C521.345 308.024 521.586 307.662 521.828 307.3C521.828 307.3 521.828 307.3 521.828 307.18C521.949 307.18 522.19 306.817 522.311 306.335Z" fill="white" stroke="#223893" stroke-width="0.3542" stroke-miterlimit="10"/>
<path d="M518.81 295.473C523.276 296.559 525.569 301.628 523.88 306.697C522.19 311.767 517.121 315.025 512.655 313.939C508.189 312.853 505.896 307.784 507.586 302.714C509.396 297.645 514.345 294.386 518.81 295.473ZM513.258 312.129C516.879 312.974 520.862 310.318 522.311 306.215C523.638 302.111 521.828 298.007 518.207 297.162C514.586 296.317 510.603 298.973 509.155 303.076C507.827 307.18 509.637 311.284 513.258 312.129Z" fill="#80C0FF" stroke="#223893" stroke-width="0.3542" stroke-miterlimit="10"/>
<path d="M507.948 301.87C507.948 301.87 507.948 301.749 508.069 301.749C508.069 301.628 508.189 301.628 508.189 301.508C508.189 301.387 508.31 301.387 508.31 301.266C508.31 301.146 508.431 301.146 508.431 301.025C508.431 300.904 508.551 300.904 508.551 300.784C508.551 300.663 508.672 300.663 508.672 300.542C508.672 300.422 508.793 300.422 508.793 300.301C508.793 300.18 508.913 300.18 508.913 300.059C508.913 299.939 509.034 299.939 509.034 299.818C509.034 299.697 509.155 299.697 509.155 299.577L509.276 299.456C509.276 299.335 509.396 299.335 509.396 299.215C509.396 299.215 509.396 299.094 509.517 299.094C509.638 298.973 509.638 298.973 509.758 298.852C509.758 298.852 509.758 298.852 509.879 298.732C510 298.611 510.12 298.49 510.12 298.37C510.241 298.249 510.241 298.249 510.362 298.128C510.362 298.128 510.362 298.128 510.483 298.008C510.603 297.887 510.603 297.887 510.724 297.766C510.845 297.646 510.965 297.525 511.086 297.525C511.086 297.525 511.086 297.525 511.207 297.404C511.327 297.283 511.327 297.283 511.448 297.163C511.448 297.163 511.569 297.163 511.569 297.042C511.689 296.921 511.81 296.921 511.81 296.801C511.931 296.68 512.052 296.68 512.172 296.559C512.172 296.559 512.293 296.559 512.293 296.439C512.414 296.439 512.414 296.318 512.534 296.318C512.534 296.318 512.655 296.318 512.655 296.197C512.776 296.197 512.776 296.076 512.896 296.076H513.017C513.138 295.956 513.259 295.956 513.379 295.835C513.379 295.835 513.379 295.835 513.5 295.835C513.621 295.835 513.741 295.714 513.741 295.714H513.862C513.983 295.714 513.983 295.594 514.103 295.594H514.224C514.345 295.594 514.466 295.473 514.586 295.473C514.707 295.473 514.828 295.352 514.948 295.352H515.069C515.19 295.352 515.31 295.352 515.31 295.232H515.431C515.552 295.232 515.672 295.232 515.793 295.232C515.793 295.232 515.793 295.232 515.914 295.232C516.035 295.232 516.155 295.232 516.276 295.232H516.397C516.517 295.232 516.638 295.232 516.638 295.232H516.759C516.879 295.232 517 295.232 517 295.232H517.121C517.242 295.232 517.362 295.232 517.483 295.232C517.483 295.232 517.483 295.232 517.604 295.232C517.724 295.232 517.845 295.232 517.966 295.232H518.086C518.207 295.232 518.328 295.232 518.328 295.232H518.448C518.569 295.232 518.69 295.232 518.811 295.352C519.535 295.473 520.138 295.835 520.742 296.076L519.293 295.232C518.69 294.87 518.086 294.628 517.362 294.507C517.242 294.507 517.121 294.507 517 294.387H516.879C516.759 294.387 516.638 294.387 516.638 294.387H516.517C516.397 294.387 516.276 294.387 516.155 294.387C516.155 294.387 516.155 294.387 516.035 294.387C515.914 294.387 515.793 294.387 515.672 294.387H515.552C515.431 294.387 515.31 294.387 515.31 294.387H515.19C515.069 294.387 514.948 294.387 514.948 294.387H514.828C514.707 294.387 514.586 294.387 514.466 294.387C514.466 294.387 514.466 294.387 514.345 294.387C514.224 294.387 514.103 294.387 513.983 294.387H513.862C513.741 294.387 513.621 294.387 513.621 294.507H513.5C513.379 294.507 513.259 294.628 513.138 294.628C513.017 294.628 512.896 294.749 512.776 294.749H512.655C512.534 294.749 512.534 294.87 512.414 294.87H512.293C512.293 294.87 512.293 294.87 512.172 294.87C512.052 294.87 512.052 294.99 511.931 294.99C511.931 294.99 511.931 294.99 511.81 294.99C511.689 294.99 511.569 295.111 511.448 295.111H511.327C511.207 295.111 511.207 295.232 511.086 295.232C511.086 295.232 510.965 295.232 510.965 295.352C510.845 295.352 510.845 295.473 510.724 295.473C510.724 295.473 510.603 295.473 510.603 295.594C510.483 295.714 510.362 295.714 510.241 295.835C510.12 295.956 510 295.956 510 296.076C510 296.076 509.879 296.076 509.879 296.197C509.879 296.197 509.758 296.197 509.758 296.318L509.638 296.439C509.638 296.439 509.638 296.439 509.517 296.559C509.396 296.68 509.276 296.68 509.155 296.801C509.034 296.921 509.034 296.921 508.913 297.042C508.913 297.042 508.913 297.042 508.793 297.163C508.672 297.283 508.672 297.283 508.551 297.404C508.431 297.525 508.31 297.646 508.31 297.766C508.31 297.766 508.31 297.766 508.189 297.887C508.069 298.008 508.069 298.008 507.948 298.128C507.948 298.128 507.948 298.249 507.827 298.249C507.827 298.249 507.827 298.249 507.827 298.37L507.707 298.49L507.586 298.611C507.586 298.732 507.465 298.732 507.465 298.852L507.344 298.973C507.344 299.094 507.224 299.094 507.224 299.215C507.224 299.335 507.103 299.335 507.103 299.456C507.103 299.577 506.982 299.577 506.982 299.697C506.982 299.818 506.862 299.818 506.862 299.939C506.862 300.059 506.741 300.059 506.741 300.18C506.741 300.301 506.62 300.301 506.62 300.422C506.62 300.542 506.5 300.542 506.5 300.663C506.5 300.663 506.5 300.784 506.379 300.784C506.379 300.904 506.258 301.025 506.258 301.146C506.258 301.146 506.258 301.266 506.137 301.266C506.137 301.387 506.017 301.628 506.017 301.749C504.568 306.094 506.017 310.319 509.155 312.129L510.603 312.974C507.465 311.164 506.017 306.818 507.465 302.594C507.465 302.473 507.586 302.232 507.586 302.111C507.586 302.111 507.586 301.991 507.707 301.991C507.948 302.111 507.948 301.991 507.948 301.87Z" fill="#3D93FA" stroke="#223893" stroke-width="0.3542" stroke-miterlimit="10"/>
<path d="M515.068 306.578L518.81 305.25L517.603 298.854L518.81 305.25L515.068 306.578Z" fill="#838383"/>
<path d="M517.603 298.854L518.81 305.25L516.275 302.957L517.603 298.854Z" fill="#313131"/>
<path d="M516.274 302.957L515.067 306.578L512.773 303.802L516.274 302.957Z" fill="#353535"/>
<path d="M516.274 302.957L512.773 303.802L517.601 298.854L516.274 302.957Z" fill="#838383"/>
<path d="M515.068 306.578L518.81 305.25L516.275 302.957L515.068 306.578Z" fill="#131313"/>
<path d="M513.98 309.957L518.567 305.854L514.946 307.181L513.98 309.957Z" fill="#383837"/>
<path d="M518.568 305.853L513.982 309.956L512.533 304.404L514.947 307.18L513.982 309.956L518.568 305.853Z" fill="#838383"/>
<path d="M498.414 327.943V354.014C498.414 354.134 498.414 354.255 498.293 354.376C498.173 354.617 497.811 354.979 497.328 355.1C496 355.704 493.828 355.704 492.379 355.1C491.896 354.859 491.534 354.617 491.414 354.376C491.414 354.255 491.293 354.134 491.293 354.014V327.943C491.293 328.064 491.293 328.185 491.414 328.305C491.534 328.547 491.896 328.909 492.379 329.03C493.707 329.633 495.879 329.633 497.328 329.03C497.811 328.788 498.173 328.547 498.293 328.305C498.414 328.185 498.414 328.064 498.414 327.943Z" fill="#5E5D5F" stroke="#223893" stroke-width="0.4952" stroke-miterlimit="10"/>
<path d="M498.414 327.943V354.014C498.414 354.134 498.414 354.255 498.293 354.376C498.173 354.617 497.811 354.979 497.328 355.1C496 355.704 493.828 355.704 492.379 355.1C491.896 354.859 491.534 354.617 491.414 354.376C491.414 354.255 491.293 354.134 491.293 354.014V327.943C491.293 328.064 491.293 328.185 491.414 328.305C491.534 328.547 491.896 328.909 492.379 329.03C493.707 329.633 495.879 329.633 497.328 329.03C497.811 328.788 498.173 328.547 498.293 328.305C498.414 328.185 498.414 328.064 498.414 327.943Z" stroke="#223893" stroke-width="0.4952" stroke-miterlimit="10"/>
<path d="M494.672 254.559L472.102 316.234L494.551 344.477L515.673 316.355L494.672 254.559Z" fill="#E0E8F7" stroke="#223893" stroke-width="0.6458" stroke-miterlimit="10"/>
<path d="M494.672 254.559L472.102 316.234L494.551 326.132L515.673 316.355L494.672 254.559Z" fill="#F9FBFF" stroke="#223893" stroke-width="0.6458" stroke-miterlimit="10"/>
<path d="M494.672 254.559L472.102 316.234L494.551 344.477L515.673 316.355L494.672 254.559Z" stroke="#223893" stroke-width="0.6458" stroke-miterlimit="10"/>
<path d="M473.794 321.546C480.86 321.546 486.588 315.008 486.588 306.942C486.588 298.876 480.86 292.338 473.794 292.338C466.728 292.338 461 298.876 461 306.942C461 315.008 466.728 321.546 473.794 321.546Z" fill="#3D93FA" stroke="#223893" stroke-width="0.5283" stroke-miterlimit="10"/>
<path d="M476.327 321.546C483.393 321.546 489.121 315.008 489.121 306.942C489.121 298.876 483.393 292.338 476.327 292.338C469.261 292.338 463.533 298.876 463.533 306.942C463.533 315.008 469.261 321.546 476.327 321.546Z" fill="#80C0FF" stroke="#223893" stroke-width="0.5283" stroke-miterlimit="10"/>
<path d="M476.328 318.649C481.994 318.649 486.587 313.408 486.587 306.942C486.587 300.476 481.994 295.234 476.328 295.234C470.662 295.234 466.068 300.476 466.068 306.942C466.068 313.408 470.662 318.649 476.328 318.649Z" fill="white" stroke="#223893" stroke-width="0.5283" stroke-miterlimit="10"/>
<path d="M477.052 310.205L481.035 305.98L475.121 298.256L481.035 305.98L477.052 310.205Z" fill="#838383"/>
<path d="M475.121 298.256L481.035 305.98L476.207 304.653L475.121 298.256Z" fill="#313131"/>
<path d="M476.207 304.652L477.052 310.204L472.104 308.153L476.207 304.652Z" fill="#353535"/>
<path d="M476.207 304.653L472.104 308.153L475.121 298.256L476.207 304.653Z" fill="#838383"/>
<path d="M477.054 310.204L481.037 305.98L476.209 304.652L477.054 310.204Z" fill="#131313"/>
<path d="M477.896 315.635L481.155 306.945L477.172 311.29L477.896 315.635Z" fill="#383837"/>
<path d="M481.154 306.945L477.895 315.635L472.223 309.118L477.171 311.29L477.895 315.635L481.154 306.945Z" fill="#838383"/>
<path d="M506.97 276.736C508.183 272.093 505.872 267.468 501.809 266.407C497.746 265.346 493.469 268.25 492.257 272.893C491.044 277.537 493.354 282.161 497.417 283.222C501.48 284.283 505.757 281.38 506.97 276.736Z" fill="#3D93FA" stroke="#223893" stroke-width="0.3147" stroke-miterlimit="10"/>
<path d="M508.562 277.051C509.775 272.407 507.464 267.783 503.401 266.721C499.338 265.66 495.061 268.564 493.848 273.208C492.636 277.851 494.946 282.476 499.009 283.537C503.072 284.598 507.349 281.694 508.562 277.051Z" fill="#80C0FF" stroke="#223893" stroke-width="0.3147" stroke-miterlimit="10"/>
<path d="M507.042 276.654C508.019 272.914 506.197 269.198 502.972 268.356C499.748 267.514 496.342 269.864 495.365 273.604C494.388 277.345 496.21 281.06 499.434 281.902C502.659 282.744 506.065 280.395 507.042 276.654Z" fill="white" stroke="#223893" stroke-width="0.3147" stroke-miterlimit="10"/>
<path d="M501.072 277.127L503.969 275.316L501.796 270.006L503.969 275.316L501.072 277.127Z" fill="#838383"/>
<path d="M501.798 270.006L503.97 275.316L501.436 273.868L501.798 270.006Z" fill="#313131"/>
<path d="M501.434 273.867L501.072 277.126L498.537 275.195L501.434 273.867Z" fill="#353535"/>
<path d="M501.434 273.868L498.537 275.196L501.796 270.006L501.434 273.868Z" fill="#838383"/>
<path d="M501.072 277.126L503.969 275.316L501.434 273.867L501.072 277.126Z" fill="#131313"/>
<path d="M500.713 280.388L503.972 275.922L501.075 277.732L500.713 280.388Z" fill="#383837"/>
<path d="M503.97 275.92L500.711 280.385L498.418 275.799L501.073 277.73L500.711 280.385L503.97 275.92Z" fill="#838383"/>
<path d="M499.774 256.464C500.217 252.556 497.839 249.077 494.461 248.694C491.083 248.31 487.985 251.167 487.542 255.075C487.098 258.983 489.477 262.461 492.854 262.845C496.232 263.228 499.33 260.371 499.774 256.464Z" fill="#3D93FA" stroke="#223893" stroke-width="0.2562" stroke-miterlimit="10"/>
<path d="M500.994 256.505C501.438 252.597 499.059 249.118 495.682 248.735C492.304 248.351 489.206 251.208 488.762 255.116C488.319 259.024 490.697 262.502 494.075 262.886C497.453 263.269 500.551 260.412 500.994 256.505Z" fill="#80C0FF" stroke="#223893" stroke-width="0.2562" stroke-miterlimit="10"/>
<path d="M499.796 256.367C500.149 253.254 498.234 250.48 495.519 250.172C492.803 249.864 490.316 252.137 489.962 255.25C489.609 258.363 491.524 261.137 494.239 261.445C496.955 261.753 499.443 259.48 499.796 256.367Z" fill="white" stroke="#223893" stroke-width="0.2562" stroke-miterlimit="10"/>
<path d="M495.036 257.452L497.209 255.641L494.795 251.658L497.209 255.641L495.036 257.452Z" fill="#838383"/>
<path d="M494.795 251.658L497.209 255.641L494.916 254.796L494.795 251.658Z" fill="#313131"/>
<path d="M494.917 254.795L495.037 257.45L492.744 256.243L494.917 254.795Z" fill="#353535"/>
<path d="M494.917 254.796L492.744 256.245L494.796 251.658L494.917 254.796Z" fill="#838383"/>
<path d="M495.039 257.45L497.211 255.64L494.918 254.795L495.039 257.45Z" fill="#131313"/>
<path d="M495.158 260.106L497.21 256.123L495.037 257.933L495.158 260.106Z" fill="#383837"/>
<path d="M497.21 256.123L495.158 260.106L492.744 256.727L495.037 257.933L495.158 260.106L497.21 256.123Z" fill="#838383"/>
<path d="M141.6 140.899V124.199H44.3V140.099C44.1 141.099 44 142.099 44 143.199C44 145.199 44.4 147.299 45.1 149.299C47 154.399 51.4 159.199 58.3 163.199C77.4 174.199 108.3 174.199 127.4 163.199C134.3 159.299 138.6 154.399 140.6 149.299C141.4 147.299 141.7 145.299 141.7 143.199C141.7 142.399 141.7 141.599 141.6 140.899Z" fill="#E0E8F7" stroke="#223893" stroke-miterlimit="10"/>
<path d="M130.632 149.116C129.749 148.732 128.608 148.828 127.31 149.499C127.31 149.499 127.31 149.499 127.258 149.499C124.507 150.985 122.275 154.531 122.275 157.454V157.502C122.275 158.892 122.794 159.898 123.625 160.378L118.175 157.502C117.915 156.975 117.76 156.304 117.76 155.537V155.489C117.76 152.326 120.147 148.445 123.158 146.863C123.158 146.863 123.158 146.863 123.21 146.863C123.936 146.48 124.611 146.288 125.234 146.24L130.632 149.116Z" fill="#3D93FA" stroke="#223893" stroke-miterlimit="10"/>
<path d="M132.24 152.182C132.24 155.105 130.008 158.652 127.257 160.137C125.907 160.856 124.714 160.952 123.831 160.473L123.676 160.377C122.845 159.898 122.326 158.891 122.326 157.501V157.454C122.326 154.53 124.558 150.984 127.309 149.498C127.309 149.498 127.309 149.498 127.361 149.498C128.658 148.827 129.8 148.731 130.683 149.115C130.683 149.115 130.734 149.115 130.734 149.163L130.89 149.259C131.721 149.738 132.24 150.744 132.24 152.182Z" fill="#E0E8F7" stroke="#223893" stroke-miterlimit="10"/>
<path fill-rule="evenodd" clip-rule="evenodd" d="M126.73 154.455C127.307 153.201 128.792 152.652 130.046 153.23L161.546 167.73C162.433 168.138 163.001 169.025 163.001 170.001V195.501C163.001 196.881 161.881 198.001 160.501 198.001C159.12 198.001 158.001 196.881 158.001 195.501V171.602L127.955 157.772C126.701 157.194 126.152 155.709 126.73 154.455Z" fill="#80AEE6" stroke="#223893" stroke-linecap="round" stroke-linejoin="round"/>
<g style="mix-blend-mode:lighten">
<path fill-rule="evenodd" clip-rule="evenodd" d="M163.5 184.533V195.398C163.5 197.055 162.157 198.398 160.5 198.398C158.843 198.398 157.5 197.055 157.5 195.398V184.764C158.572 185.332 159.841 185.757 161 185.499C161.996 185.278 162.82 184.934 163.5 184.533Z" fill="white" fill-opacity="0.28"/>
</g>
<path d="M141.7 121.099C141.7 123.099 141.3 125.199 140.6 127.199C138.7 132.299 134.3 137.099 127.4 141.099C108.3 152.099 77.4 152.099 58.3 141.099C51.5 137.099 47.1 132.299 45.1 127.199C44.3 125.199 44 123.199 44 121.099C44 113.899 48.8 106.699 58.3 101.199C77.4 90.1992 108.3 90.1992 127.4 101.199C137 106.699 141.7 113.899 141.7 121.099Z" fill="white" stroke="#223893" stroke-miterlimit="10"/>
<path d="M124.9 120C124.9 121.2 124.7 122.4 124.2 123.6C123 126.6 120.1 129.5 115.7 131.9C103.4 138.5 83.5 138.5 71.2 131.9C66.8 129.5 64 126.6 62.7 123.6C62.2 122.4 62 121.2 62 120C62 115.7 65.1 111.4 71.2 108.1C83.5 101.5 103.4 101.5 115.7 108.1C121.8 111.4 124.9 115.7 124.9 120Z" fill="#99BEEB" stroke="#223893" stroke-miterlimit="10"/>
<path d="M115.6 112.499C103.3 105.899 83.3996 105.899 71.0996 112.499C65.9996 115.199 62.9996 118.699 62.0996 122.199C62.1996 122.699 62.3996 123.199 62.5996 123.599C63.7996 126.599 66.6996 129.499 71.0996 131.899C83.3996 138.499 103.3 138.499 115.6 131.899C120 129.499 122.8 126.599 124.1 123.599C124.3 123.099 124.4 122.599 124.6 122.199C123.7 118.599 120.7 115.199 115.6 112.499Z" fill="#80AEE6" stroke="#223893" stroke-miterlimit="10"/>
<path d="M125.1 52.725C125.2 52.225 125.3 51.625 125.3 51.125C125.3 46.725 122.2 42.425 116 39.025C103.5 32.325 83.3 32.325 70.8 39.025C64.6 42.325 61.5 46.725 61.5 51.125C61.5 51.625 61.6 52.225 61.7 52.725V117.325C61.5 117.925 61.5 118.525 61.5 119.025C61.5 120.225 61.7 121.525 62.2 122.725C63.5 125.825 66.3 128.725 70.8 131.125C83.3 137.825 103.4 137.825 115.9 131.125C120.4 128.725 123.2 125.825 124.5 122.725C125 121.525 125.2 120.225 125.2 119.025C125.2 118.425 125.1 117.925 125 117.325V52.725H125.1Z" fill="url(#paint4_linear_1290_14411)"/>
<path d="M113.199 70H75.1992V121C75.1992 121.8 75.3992 122.6 75.6992 123.4C76.3992 125.4 78.0992 127.2 80.7992 128.7C88.1992 132.9 100.099 132.9 107.399 128.7C109.999 127.2 111.699 125.3 112.499 123.4C112.799 122.6 113.199 121.8 113.199 121V70Z" fill="url(#paint5_linear_1290_14411)"/>
<path d="M118.8 65.6985C118.8 78.8985 109.6 94.8985 98.1 101.498C92.5 104.698 87.5 105.098 83.7 102.998C82.8 102.498 82 101.798 81.2 101.098C78.9 98.5985 77.5 94.6985 77.5 89.5985C77.5 76.3985 86.7 60.3985 98.2 53.7985C102.6 51.2985 106.7 50.4985 110.1 51.2985C111 51.4985 111.8 51.7985 112.6 52.1985L113.2 52.4985C116.6 54.7985 118.8 59.2985 118.8 65.6985Z" fill="#80C0FF"/>
<path d="M118.8 65.6985C118.8 78.8985 109.6 94.8985 98.1 101.498C92.5 104.698 87.5 105.098 83.7 102.998C82.8 102.498 82 101.798 81.2 101.098C78.9 98.5985 77.5 94.6985 77.5 89.5985C77.5 76.3985 86.7 60.3985 98.2 53.7985C102.6 51.2985 106.7 50.4985 110.1 51.2985C111 51.4985 111.8 51.7985 112.6 52.1985L113.2 52.4985C116.6 54.7985 118.8 59.2985 118.8 65.6985Z" stroke="#223893" stroke-miterlimit="10" stroke-linecap="round" stroke-linejoin="round"/>
<path d="M113.9 68.5977C113.9 78.5977 106.9 90.7977 98.2 95.7977C89.5 100.798 82.5 96.6977 82.5 86.6977C82.5 76.6977 89.5 64.4977 98.2 59.4977C106.9 54.4977 113.9 58.4977 113.9 68.5977Z" fill="white"/>
<path d="M113.9 68.5977C113.9 78.5977 106.9 90.7977 98.2 95.7977C89.5 100.798 82.5 96.6977 82.5 86.6977C82.5 76.6977 89.5 64.4977 98.2 59.4977C106.9 54.4977 113.9 58.4977 113.9 68.5977Z" stroke="#223893" stroke-miterlimit="10" stroke-linecap="round" stroke-linejoin="round"/>
<path d="M112.5 52.1986C111.7 51.7986 110.9 51.4986 110 51.2986C106.6 50.4986 102.6 51.2986 98.1004 53.7986C86.8004 60.3986 77.5004 76.3986 77.5004 89.5986C77.5004 94.6986 78.9004 98.5986 81.2004 101.099C81.9004 101.899 82.8004 102.499 83.7004 102.999L78.5004 99.9986H78.4004C74.7004 97.7986 72.4004 93.1986 72.4004 86.6986C72.4004 73.4986 81.6004 57.4986 93.1004 50.8986C98.7004 47.6986 103.7 47.2986 107.4 49.2986L108 49.5986L112.5 52.1986Z" fill="#3D93FA"/>
<path d="M112.5 52.1986C111.7 51.7986 110.9 51.4986 110 51.2986C106.6 50.4986 102.6 51.2986 98.1004 53.7986C86.8004 60.3986 77.5004 76.3986 77.5004 89.5986C77.5004 94.6986 78.9004 98.5986 81.2004 101.099C81.9004 101.899 82.8004 102.499 83.7004 102.999L78.5004 99.9986H78.4004C74.7004 97.7986 72.4004 93.1986 72.4004 86.6986C72.4004 73.4986 81.6004 57.4986 93.1004 50.8986C98.7004 47.6986 103.7 47.2986 107.4 49.2986L108 49.5986L112.5 52.1986Z" stroke="#223893" stroke-miterlimit="10" stroke-linecap="round" stroke-linejoin="round"/>
<path d="M98.7012 63.5996L103.601 74.9996L99.8012 79.7996L103.601 74.9996L98.7012 63.5996Z" fill="#838383"/>
<path d="M98.702 63.5996L98.502 73.2996L103.602 75.0996L98.702 63.5996Z" fill="#313131"/>
<path d="M98.5012 73.2988L93.2012 78.7988L98.3012 81.6988L98.5012 73.2988Z" fill="#353535"/>
<path d="M98.7012 63.5996L93.2012 78.7996L98.5012 73.2996L98.7012 63.5996Z" fill="#838383"/>
<path d="M98.5008 73.2988L98.3008 81.6988V81.5988L99.8008 79.7988L103.601 74.9988L98.5008 73.2988Z" fill="#131313"/>
<path d="M103.502 76.5L98.2016 83.2L98.1016 89.7L103.502 76.5Z" fill="#383837"/>
<path d="M103.501 76.5L98.1012 89.7L98.2012 83.2L93.2012 80.3L98.1012 89.7L103.501 76.5Z" fill="#838383"/>
<path d="M504.82 85.0277V59.2129H433.375V84.4823C433.193 85.2095 433.193 86.0276 433.193 86.7548C433.193 88.2091 433.466 89.7544 434.011 91.2087C435.466 94.9355 438.647 98.4805 443.647 101.389C457.645 109.479 480.369 109.479 494.367 101.389C499.367 98.4805 502.639 94.9355 504.002 91.2087C504.548 89.7544 504.82 88.2091 504.82 86.7548C505.002 86.2094 504.911 85.5731 504.82 85.0277Z" fill="#0080E7" stroke="#223893" stroke-miterlimit="10"/>
<path d="M505 58.0319C505 59.4863 504.727 61.0315 504.182 62.4859C502.728 66.2127 499.546 69.7577 494.547 72.6664C480.549 80.7562 457.824 80.7562 443.826 72.6664C438.827 69.7577 435.555 66.2127 434.191 62.4859C433.646 61.0315 433.373 59.4863 433.373 58.0319C433.373 52.7599 436.918 47.3969 443.917 43.3975C457.915 35.3076 480.64 35.3076 494.638 43.3975C501.455 47.3969 505 52.7599 505 58.0319Z" fill="#45C5FF" stroke="#223893" stroke-miterlimit="10"/>
<g clip-path="url(#clip0_1290_14411)">
<path d="M445.801 37.1004C445.201 36.8004 444.301 36.9004 443.401 37.4004C441.401 38.6004 439.801 41.4004 439.801 43.7004C439.801 44.8004 440.201 45.6004 440.801 46.0004L435.001 42.7004C434.801 42.3004 434.701 41.8004 434.701 41.2004C434.701 38.7004 436.501 35.6004 438.601 34.4004C439.101 34.1004 439.601 33.9004 440.101 33.9004L445.801 37.1004Z" fill="#E0E8F7"/>
<path d="M445.801 37.1004C445.201 36.8004 444.301 36.9004 443.401 37.4004C441.401 38.6004 439.801 41.4004 439.801 43.7004C439.801 44.8004 440.201 45.6004 440.801 46.0004L435.001 42.7004C434.801 42.3004 434.701 41.8004 434.701 41.2004C434.701 38.7004 436.501 35.6004 438.601 34.4004C439.101 34.1004 439.601 33.9004 440.101 33.9004L445.801 37.1004Z" stroke="#223893" stroke-miterlimit="10" stroke-linecap="round" stroke-linejoin="round"/>
<path d="M440.001 33.7994C439.501 33.7994 439.001 33.9994 438.501 34.2994C436.301 35.5994 434.601 38.5994 434.601 41.0994C434.601 41.6994 434.701 42.1994 434.901 42.5994L428.901 39.1994L428.801 39.0994C428.201 38.6994 427.801 37.8994 427.801 36.7994C427.801 34.4994 429.401 31.6994 431.401 30.4994C432.501 30.0994 433.301 29.9994 434.001 30.2994L434.101 30.3994L440.001 33.7994Z" fill="#3D93FA"/>
<path d="M440.001 33.7994C439.501 33.7994 439.001 33.9994 438.501 34.2994C436.301 35.5994 434.601 38.5994 434.601 41.0994C434.601 41.6994 434.701 42.1994 434.901 42.5994L428.901 39.1994L428.801 39.0994C428.201 38.6994 427.801 37.8994 427.801 36.7994C427.801 34.4994 429.401 31.6994 431.401 30.4994C432.501 30.0994 433.301 29.9994 434.001 30.2994L434.101 30.3994L440.001 33.7994Z" stroke="#223893" stroke-miterlimit="10" stroke-linecap="round" stroke-linejoin="round"/>
<path d="M447.001 39.6C447.001 41.9 445.401 44.7 443.401 45.9C442.401 46.5 441.501 46.5 440.901 46.2L440.801 46.1C440.201 45.7 439.801 44.9 439.801 43.8C439.801 41.5 441.401 38.7 443.401 37.5C444.301 37 445.201 36.9 445.801 37.2L445.901 37.3C446.601 37.6 447.001 38.4 447.001 39.6Z" fill="#80C0FF"/>
<path d="M447.001 39.6C447.001 41.9 445.401 44.7 443.401 45.9C442.401 46.5 441.501 46.5 440.901 46.2L440.801 46.1C440.201 45.7 439.801 44.9 439.801 43.8C439.801 41.5 441.401 38.7 443.401 37.5C444.301 37 445.201 36.9 445.801 37.2L445.901 37.3C446.601 37.6 447.001 38.4 447.001 39.6Z" stroke="#223893" stroke-miterlimit="10" stroke-linecap="round" stroke-linejoin="round"/>
<path d="M446.001 37.1996L445.801 37.0996" stroke="#223893" stroke-miterlimit="10" stroke-linecap="round" stroke-linejoin="round"/>
<path d="M440.701 46.0996H440.801" stroke="#223893" stroke-miterlimit="10" stroke-linecap="round" stroke-linejoin="round"/>
<path d="M459.8 47.5998C459.4 47.3998 458.9 47.3998 458.3 47.7998C457 48.4998 456 50.2998 456 51.6998C456 52.3998 456.2 52.8998 456.6 53.0998L442 44.6998C441.6 44.4998 441.4 43.9998 441.4 43.2998C441.4 41.8998 442.4 40.0998 443.6 39.3998C444.2 39.0998 444.7 38.9998 445.1 39.1998L445.2 39.2998L459.8 47.5998Z" fill="white"/>
<path d="M459.8 47.5998C459.4 47.3998 458.9 47.3998 458.3 47.7998C457 48.4998 456 50.2998 456 51.6998C456 52.3998 456.2 52.8998 456.6 53.0998L442 44.6998C441.6 44.4998 441.4 43.9998 441.4 43.2998C441.4 41.8998 442.4 40.0998 443.6 39.3998C444.2 39.0998 444.7 38.9998 445.1 39.1998L445.2 39.2998L459.8 47.5998Z" stroke="#223893" stroke-miterlimit="10" stroke-linecap="round" stroke-linejoin="round"/>
<path d="M493.801 34.4992C494.401 34.1992 495.301 34.2992 496.201 34.7992C498.201 35.9992 499.801 38.7992 499.801 41.0992C499.801 42.1992 499.401 42.9992 498.801 43.3992L504.601 40.0992C504.801 39.6992 504.901 39.1992 504.901 38.5992C505.001 35.9992 503.201 32.9992 501.101 31.6992C500.601 31.3992 500.101 31.1992 499.601 31.1992L493.801 34.4992Z" fill="#E0E8F7"/>
<path d="M493.801 34.4992C494.401 34.1992 495.301 34.2992 496.201 34.7992C498.201 35.9992 499.801 38.7992 499.801 41.0992C499.801 42.1992 499.401 42.9992 498.801 43.3992L504.601 40.0992C504.801 39.6992 504.901 39.1992 504.901 38.5992C505.001 35.9992 503.201 32.9992 501.101 31.6992C500.601 31.3992 500.101 31.1992 499.601 31.1992L493.801 34.4992Z" stroke="#223893" stroke-miterlimit="10" stroke-linecap="round" stroke-linejoin="round"/>
<path d="M499.602 31.1994C500.102 31.1994 500.602 31.3994 501.102 31.6994C503.202 32.9994 505.002 35.9994 505.002 38.4994C505.002 39.0994 504.902 39.5994 504.702 39.9994L510.702 36.5994L510.802 36.4994C511.402 36.0994 511.802 35.2994 511.802 34.1994C511.802 31.8994 510.202 29.0994 508.202 27.8994C507.202 27.2994 506.402 27.2994 505.702 27.5994L505.602 27.6994L499.602 31.1994Z" fill="#3D93FA"/>
<path d="M499.602 31.1994C500.102 31.1994 500.602 31.3994 501.102 31.6994C503.202 32.9994 505.002 35.9994 505.002 38.4994C505.002 39.0994 504.902 39.5994 504.702 39.9994L510.702 36.5994L510.802 36.4994C511.402 36.0994 511.802 35.2994 511.802 34.1994C511.802 31.8994 510.202 29.0994 508.202 27.8994C507.202 27.2994 506.402 27.2994 505.702 27.5994L505.602 27.6994L499.602 31.1994Z" stroke="#223893" stroke-miterlimit="10" stroke-linecap="round" stroke-linejoin="round"/>
<path d="M492.701 36.8988C492.701 39.1988 494.301 41.9988 496.301 43.1988C497.301 43.7988 498.201 43.7988 498.801 43.4988L498.901 43.3988C499.501 42.9988 499.901 42.1988 499.901 41.0988C499.901 38.7988 498.301 35.9988 496.301 34.7988C495.401 34.2988 494.501 34.1988 493.901 34.4988L493.801 34.5988C493.001 34.9988 492.701 35.7988 492.701 36.8988Z" fill="#80C0FF"/>
<path d="M492.701 36.8988C492.701 39.1988 494.301 41.9988 496.301 43.1988C497.301 43.7988 498.201 43.7988 498.801 43.4988L498.901 43.3988C499.501 42.9988 499.901 42.1988 499.901 41.0988C499.901 38.7988 498.301 35.9988 496.301 34.7988C495.401 34.2988 494.501 34.1988 493.901 34.4988L493.801 34.5988C493.001 34.9988 492.701 35.7988 492.701 36.8988Z" stroke="#223893" stroke-miterlimit="10" stroke-linecap="round" stroke-linejoin="round"/>
<path d="M493.701 34.6L493.801 34.5" stroke="#223893" stroke-miterlimit="10" stroke-linecap="round" stroke-linejoin="round"/>
<path d="M498.901 43.3984L498.801 43.4984" stroke="#223893" stroke-miterlimit="10" stroke-linecap="round" stroke-linejoin="round"/>
<path d="M479.801 45.0001C480.201 44.8001 480.701 44.8001 481.301 45.2001C482.501 45.9001 483.501 47.7001 483.501 49.1001C483.501 49.8001 483.301 50.3001 482.901 50.5001L497.501 42.1001C497.901 41.9001 498.101 41.4001 498.101 40.7001C498.101 39.3001 497.101 37.5001 495.901 36.8001C495.301 36.5001 494.801 36.4001 494.401 36.6001L494.301 36.7001L479.801 45.0001Z" fill="white"/>
<path d="M479.801 45.0001C480.201 44.8001 480.701 44.8001 481.301 45.2001C482.501 45.9001 483.501 47.7001 483.501 49.1001C483.501 49.8001 483.301 50.3001 482.901 50.5001L497.501 42.1001C497.901 41.9001 498.101 41.4001 498.101 40.7001C498.101 39.3001 497.101 37.5001 495.901 36.8001C495.301 36.5001 494.801 36.4001 494.401 36.6001L494.301 36.7001L479.801 45.0001Z" stroke="#223893" stroke-miterlimit="10" stroke-linecap="round" stroke-linejoin="round"/>
<path d="M484.4 59.2988V47.7988H452.6V58.9988C452.5 59.2988 452.5 59.6988 452.5 59.9988C452.5 60.6988 452.6 61.2988 452.9 61.9988C453.5 63.6988 455 65.1988 457.2 66.4988C463.4 70.0988 473.5 70.0988 479.8 66.4988C482 65.1988 483.5 63.5988 484.1 61.9988C484.3 61.2988 484.5 60.6988 484.5 59.9988C484.4 59.7988 484.4 59.5988 484.4 59.2988Z" fill="#0080E7" stroke="#223893" stroke-miterlimit="10"/>
<path d="M484.4 47.2996C484.4 47.9996 484.3 48.5996 484 49.2996C483.4 50.9996 481.9 52.4996 479.7 53.7996C473.5 57.3996 463.4 57.3996 457.1 53.7996C454.9 52.4996 453.4 50.8996 452.8 49.2996C452.6 48.5996 452.4 47.9996 452.4 47.2996C452.4 44.8996 454 42.5996 457.1 40.7996C463.3 37.1996 473.4 37.1996 479.7 40.7996C482.9 42.5996 484.4 44.8996 484.4 47.2996Z" fill="#45C5FF" stroke="#223893" stroke-miterlimit="10"/>
<path d="M497.899 66.799C497.499 66.599 496.999 66.599 496.399 66.999C495.199 67.699 494.199 69.499 494.199 70.899C494.199 71.599 494.399 72.099 494.799 72.299L479.299 63.399C478.899 63.199 478.699 62.699 478.699 61.999C478.699 60.599 479.699 58.799 480.899 58.099C481.499 57.799 481.999 57.699 482.399 57.899L482.499 57.999L497.899 66.799Z" fill="white"/>
<path d="M497.899 66.799C497.499 66.599 496.999 66.599 496.399 66.999C495.199 67.699 494.199 69.499 494.199 70.899C494.199 71.599 494.399 72.099 494.799 72.299L479.299 63.399C478.899 63.199 478.699 62.699 478.699 61.999C478.699 60.599 479.699 58.799 480.899 58.099C481.499 57.799 481.999 57.699 482.399 57.899L482.499 57.999L497.899 66.799Z" stroke="#223893" stroke-miterlimit="10" stroke-linecap="round" stroke-linejoin="round"/>
<path d="M498.6 68.299C498.6 69.699 497.6 71.499 496.4 72.199C495.8 72.499 495.2 72.599 494.8 72.399H494.7C494.3 72.199 494.1 71.699 494.1 70.999C494.1 69.599 495.1 67.799 496.3 67.099C496.9 66.799 497.4 66.699 497.8 66.899H497.9C498.4 67.099 498.6 67.599 498.6 68.299Z" fill="white"/>
<path d="M498.6 68.299C498.6 69.699 497.6 71.499 496.4 72.199C495.8 72.499 495.2 72.599 494.8 72.399H494.7C494.3 72.199 494.1 71.699 494.1 70.999C494.1 69.599 495.1 67.799 496.3 67.099C496.9 66.799 497.4 66.699 497.8 66.899H497.9C498.4 67.099 498.6 67.599 498.6 68.299Z" stroke="#223893" stroke-miterlimit="10" stroke-linecap="round" stroke-linejoin="round"/>
<path d="M510.7 71.8992C510.1 71.5992 509.2 71.6992 508.3 72.1992C506.3 73.3992 504.7 76.1992 504.7 78.4992C504.7 79.5992 505.1 80.3992 505.7 80.7992L499.9 77.4992C499.7 77.0992 499.6 76.5992 499.6 75.9992C499.6 73.4992 501.4 70.3992 503.5 69.1992C504 68.8992 504.5 68.6992 505 68.6992L510.7 71.8992Z" fill="#3D93FA"/>
<path d="M510.7 71.8992C510.1 71.5992 509.2 71.6992 508.3 72.1992C506.3 73.3992 504.7 76.1992 504.7 78.4992C504.7 79.5992 505.1 80.3992 505.7 80.7992L499.9 77.4992C499.7 77.0992 499.6 76.5992 499.6 75.9992C499.6 73.4992 501.4 70.3992 503.5 69.1992C504 68.8992 504.5 68.6992 505 68.6992L510.7 71.8992Z" stroke="#223893" stroke-miterlimit="10" stroke-linecap="round" stroke-linejoin="round"/>
<path d="M504.899 68.5994C504.399 68.5994 503.899 68.7994 503.399 69.0994C501.199 70.3994 499.499 73.3994 499.499 75.8994C499.499 76.4994 499.599 76.9994 499.799 77.3994L493.799 73.9994H493.699C493.099 73.5994 492.699 72.7994 492.699 71.6994C492.699 69.3994 494.299 66.5994 496.299 65.3994C497.299 64.7994 498.099 64.7994 498.799 65.0994L498.899 65.1994L504.899 68.5994Z" fill="#E0E8F7"/>
<path d="M504.899 68.5994C504.399 68.5994 503.899 68.7994 503.399 69.0994C501.199 70.3994 499.499 73.3994 499.499 75.8994C499.499 76.4994 499.599 76.9994 499.799 77.3994L493.799 73.9994H493.699C493.099 73.5994 492.699 72.7994 492.699 71.6994C492.699 69.3994 494.299 66.5994 496.299 65.3994C497.299 64.7994 498.099 64.7994 498.799 65.0994L498.899 65.1994L504.899 68.5994Z" stroke="#223893" stroke-miterlimit="10" stroke-linecap="round" stroke-linejoin="round"/>
<path d="M511.899 74.2992C511.899 76.5992 510.299 79.3992 508.299 80.5992C507.299 81.1992 506.399 81.1992 505.799 80.8992L505.699 80.7992C505.099 80.3992 504.699 79.5992 504.699 78.4992C504.699 76.1992 506.299 73.3992 508.299 72.1992C509.199 71.6992 510.099 71.5992 510.699 71.8992L510.799 71.9992C511.499 72.3992 511.899 73.1992 511.899 74.2992Z" fill="#80C0FF"/>
<path d="M511.899 74.2992C511.899 76.5992 510.299 79.3992 508.299 80.5992C507.299 81.1992 506.399 81.1992 505.799 80.8992L505.699 80.7992C505.099 80.3992 504.699 79.5992 504.699 78.4992C504.699 76.1992 506.299 73.3992 508.299 72.1992C509.199 71.6992 510.099 71.5992 510.699 71.8992L510.799 71.9992C511.499 72.3992 511.899 73.1992 511.899 74.2992Z" stroke="#223893" stroke-miterlimit="10" stroke-linecap="round" stroke-linejoin="round"/>
<path d="M510.899 71.9984L510.699 71.8984" stroke="#223893" stroke-miterlimit="10" stroke-linecap="round" stroke-linejoin="round"/>
<path d="M505.6 80.7988L505.7 80.8988" stroke="#223893" stroke-miterlimit="10" stroke-linecap="round" stroke-linejoin="round"/>
<path d="M440.4 67.1994C440.8 66.9994 441.3 66.9994 441.9 67.3994C443.1 68.0994 444.1 69.8994 444.1 71.2994C444.1 71.9994 443.9 72.4994 443.5 72.6994L459 63.7994C459.4 63.5994 459.6 63.0994 459.6 62.3994C459.6 60.9994 458.6 59.1994 457.4 58.4994C456.8 58.1994 456.3 58.0994 455.9 58.2994L455.8 58.3994L440.4 67.1994Z" fill="white"/>
<path d="M440.4 67.1994C440.8 66.9994 441.3 66.9994 441.9 67.3994C443.1 68.0994 444.1 69.8994 444.1 71.2994C444.1 71.9994 443.9 72.4994 443.5 72.6994L459 63.7994C459.4 63.5994 459.6 63.0994 459.6 62.3994C459.6 60.9994 458.6 59.1994 457.4 58.4994C456.8 58.1994 456.3 58.0994 455.9 58.2994L455.8 58.3994L440.4 67.1994Z" stroke="#223893" stroke-miterlimit="10" stroke-linecap="round" stroke-linejoin="round"/>
<path d="M439.699 68.6994C439.699 70.0994 440.699 71.8994 441.899 72.5994C442.499 72.8994 443.099 72.9994 443.499 72.7994H443.599C443.999 72.5994 444.199 72.0994 444.199 71.3994C444.199 69.9994 443.199 68.1994 441.999 67.4994C441.399 67.1994 440.899 67.0994 440.499 67.2994H440.399C439.999 67.4994 439.699 67.9994 439.699 68.6994Z" fill="white"/>
<path d="M439.699 68.6994C439.699 70.0994 440.699 71.8994 441.899 72.5994C442.499 72.8994 443.099 72.9994 443.499 72.7994H443.599C443.999 72.5994 444.199 72.0994 444.199 71.3994C444.199 69.9994 443.199 68.1994 441.999 67.4994C441.399 67.1994 440.899 67.0994 440.499 67.2994H440.399C439.999 67.4994 439.699 67.9994 439.699 68.6994Z" stroke="#223893" stroke-miterlimit="10" stroke-linecap="round" stroke-linejoin="round"/>
<path d="M427.699 72.2996C428.299 71.9996 429.199 72.0996 430.099 72.5996C432.099 73.7996 433.699 76.5996 433.699 78.8996C433.699 79.9996 433.299 80.7996 432.699 81.1996L438.499 77.8996C438.699 77.4996 438.799 76.9996 438.799 76.3996C438.799 73.8996 436.999 70.7996 434.899 69.5996C434.399 69.2996 433.899 69.0996 433.399 69.0996L427.699 72.2996Z" fill="#3D93FA"/>
<path d="M427.699 72.2996C428.299 71.9996 429.199 72.0996 430.099 72.5996C432.099 73.7996 433.699 76.5996 433.699 78.8996C433.699 79.9996 433.299 80.7996 432.699 81.1996L438.499 77.8996C438.699 77.4996 438.799 76.9996 438.799 76.3996C438.799 73.8996 436.999 70.7996 434.899 69.5996C434.399 69.2996 433.899 69.0996 433.399 69.0996L427.699 72.2996Z" stroke="#223893" stroke-miterlimit="10" stroke-linecap="round" stroke-linejoin="round"/>
<path d="M433.4 69.0002C433.9 69.0002 434.4 69.2002 434.9 69.5002C437.1 70.8002 438.8 73.8002 438.8 76.3002C438.8 76.9002 438.7 77.4002 438.5 77.8002L444.5 74.4002L444.6 74.3002C445.2 73.9002 445.6 73.1002 445.6 72.0002C445.6 69.7002 444 66.9002 442 65.7002C441 65.1002 440.2 65.1002 439.5 65.4002L439.4 65.5002L433.4 69.0002Z" fill="#E0E8F7"/>
<path d="M433.4 69.0002C433.9 69.0002 434.4 69.2002 434.9 69.5002C437.1 70.8002 438.8 73.8002 438.8 76.3002C438.8 76.9002 438.7 77.4002 438.5 77.8002L444.5 74.4002L444.6 74.3002C445.2 73.9002 445.6 73.1002 445.6 72.0002C445.6 69.7002 444 66.9002 442 65.7002C441 65.1002 440.2 65.1002 439.5 65.4002L439.4 65.5002L433.4 69.0002Z" stroke="#223893" stroke-miterlimit="10" stroke-linecap="round" stroke-linejoin="round"/>
<path d="M426.5 74.6996C426.5 76.9996 428.1 79.7996 430.1 80.9996C431.1 81.5996 432 81.5996 432.6 81.2996L432.7 81.1996C433.3 80.7996 433.7 79.9996 433.7 78.8996C433.7 76.5996 432.1 73.7996 430.1 72.5996C429.2 72.0996 428.3 71.9996 427.7 72.2996L427.6 72.3996C426.9 72.7996 426.5 73.5996 426.5 74.6996Z" fill="#80C0FF"/>
<path d="M426.5 74.6996C426.5 76.9996 428.1 79.7996 430.1 80.9996C431.1 81.5996 432 81.5996 432.6 81.2996L432.7 81.1996C433.3 80.7996 433.7 79.9996 433.7 78.8996C433.7 76.5996 432.1 73.7996 430.1 72.5996C429.2 72.0996 428.3 71.9996 427.7 72.2996L427.6 72.3996C426.9 72.7996 426.5 73.5996 426.5 74.6996Z" stroke="#223893" stroke-miterlimit="10" stroke-linecap="round" stroke-linejoin="round"/>
<path d="M427.5 72.3988L427.7 72.2988" stroke="#223893" stroke-miterlimit="10" stroke-linecap="round" stroke-linejoin="round"/>
<path d="M432.799 81.1992L432.699 81.2992" stroke="#223893" stroke-miterlimit="10" stroke-linecap="round" stroke-linejoin="round"/>
<path d="M480.4 46.6977V38.0977H456.6V46.4977C456.6 46.7977 456.5 46.9977 456.5 47.2977C456.5 47.7977 456.6 48.2977 456.8 48.7977C457.3 49.9977 458.3 51.1977 460 52.1977C464.7 54.8977 472.3 54.8977 476.9 52.1977C478.6 51.1977 479.7 49.9977 480.1 48.7977C480.3 48.2977 480.4 47.7977 480.4 47.2977C480.4 47.0977 480.4 46.8977 480.4 46.6977Z" fill="white" stroke="#223893" stroke-miterlimit="10"/>
<path d="M480.4 37.6984C480.4 38.1984 480.3 38.6984 480.1 39.1984C479.6 40.3984 478.6 41.5984 476.9 42.5984C472.2 45.2984 464.6 45.2984 460 42.5984C458.3 41.5984 457.2 40.3984 456.8 39.1984C456.6 38.6984 456.5 38.1984 456.5 37.6984C456.5 35.8984 457.7 34.1984 460 32.7984C464.7 30.0984 472.3 30.0984 476.9 32.7984C479.3 34.0984 480.4 35.8984 480.4 37.6984Z" fill="white" stroke="#223893" stroke-miterlimit="10"/>
<path d="M475 37.5C475 37.7308 474.917 38.0385 474.834 38.2692C474.586 38.8846 474.006 39.5 473.096 39.9615C470.529 41.3462 466.471 41.3462 463.904 39.9615C462.994 39.5 462.414 38.8846 462.166 38.2692C462.083 38.0385 462 37.7308 462 37.5C462 36.5769 462.662 35.7308 463.904 35.0385C466.471 33.6538 470.529 33.6538 473.096 35.0385C474.42 35.6538 475 36.5769 475 37.5Z" fill="#00FFFF" stroke="#223893" stroke-miterlimit="10"/>
</g>
<defs>
<linearGradient id="paint0_linear_1290_14411" x1="388.1" y1="123.199" x2="344.1" y2="195.699" gradientUnits="userSpaceOnUse">
<stop stop-color="#117CFF"/>
<stop offset="0.991711" stop-color="#B2CEF0"/>
</linearGradient>
<linearGradient id="paint1_linear_1290_14411" x1="411.75" y1="140.502" x2="402" y2="224.5" gradientUnits="userSpaceOnUse">
<stop stop-color="#82A1FF"/>
<stop offset="1" stop-color="#BBCFFF"/>
</linearGradient>
<linearGradient id="paint2_linear_1290_14411" x1="492.009" y1="375.362" x2="493.764" y2="277.65" gradientUnits="userSpaceOnUse">
<stop stop-color="#1D32CD" stop-opacity="0.33"/>
<stop offset="0.9848" stop-color="white" stop-opacity="0"/>
</linearGradient>
<linearGradient id="paint3_linear_1290_14411" x1="494.536" y1="371.423" x2="493.219" y2="314.762" gradientUnits="userSpaceOnUse">
<stop stop-color="#A5BFFF" stop-opacity="0.63"/>
<stop offset="0.9848" stop-color="#CCE0F4" stop-opacity="0"/>
</linearGradient>
<linearGradient id="paint4_linear_1290_14411" x1="92.5094" y1="132.362" x2="94.2638" y2="34.6497" gradientUnits="userSpaceOnUse">
<stop stop-color="#0078FF" stop-opacity="0.36"/>
<stop offset="0.9848" stop-color="white" stop-opacity="0"/>
</linearGradient>
<linearGradient id="paint5_linear_1290_14411" x1="95.0361" y1="129.423" x2="93.7193" y2="72.7619" gradientUnits="userSpaceOnUse">
<stop stop-color="#B0E0FF" stop-opacity="0.5"/>
<stop offset="0.9848" stop-color="#CCE0F4" stop-opacity="0"/>
</linearGradient>
<clipPath id="clip0_1290_14411">
<rect width="86.4" height="55" fill="white" transform="translate(426 27)"/>
</clipPath>
</defs>
</svg>
