<svg width="24" viewBox="0 0 24 24" fill="none" xmlns="http://www.w3.org/2000/svg">
  <circle cx="12" cy="12" r="11.4" stroke="#2AA1FF" strokeWidth="1.2" />
  <path
    d="M9.12368 11.133H14.9105C14.9172 11.133 14.9257 11.133 14.9325 11.1313C15.0069 11.1195 15.056 11.0501 15.0441 10.9757L14.3639 6.77938C14.3538 6.71339 14.2963 6.66602 14.2303 6.66602H9.80388C9.73789 6.66602 9.68036 6.71339 9.67021 6.77938L8.99 10.9757C8.98831 10.9824 8.98831 10.9909 8.98831 10.9976C8.98831 11.0721 9.04923 11.133 9.12368 11.133ZM10.6668 7.81661H13.3656L13.7159 9.98242H10.3149L10.6668 7.81661ZM10.7091 12.6C10.699 12.534 10.6414 12.4866 10.5754 12.4866H6.14906C6.08307 12.4866 6.02554 12.534 6.01539 12.6L5.33519 16.7963C5.3335 16.8031 5.3335 16.8115 5.3335 16.8183C5.3335 16.8927 5.39441 16.9536 5.46886 16.9536H11.2557C11.2624 16.9536 11.2709 16.9536 11.2776 16.952C11.3521 16.9401 11.4012 16.8707 11.3893 16.7963L10.7091 12.6ZM6.66175 15.8031L7.012 13.6372H9.71081L10.0611 15.8031H6.66175ZM18.6651 16.7963L17.9849 12.6C17.9748 12.534 17.9172 12.4866 17.8512 12.4866H13.4249C13.3589 12.4866 13.3013 12.534 13.2912 12.6L12.611 16.7963C12.6093 16.8031 12.6093 16.8115 12.6093 16.8183C12.6093 16.8927 12.6702 16.9536 12.7447 16.9536H18.5314C18.5382 16.9536 18.5467 16.9536 18.5534 16.952C18.6262 16.9401 18.677 16.8707 18.6651 16.7963ZM13.9375 15.8031L14.2878 13.6372H16.9866L17.3369 15.8031H13.9375Z"
    fill="#2AA1FF"
    stroke="#2AA1FF"
    stroke-width="0.2"
  />
</svg>