<svg width="24" height="24" viewBox="0 0 24 24" fill="none" xmlns="http://www.w3.org/2000/svg">
<path d="M11.9619 7.91727C9.66476 7.91727 7.7959 9.76515 7.7959 12.0365C7.7959 14.3079 9.66476 16.1559 11.9619 16.1559C12.1854 16.1559 12.4217 16.133 12.7071 16.0835C13.1336 16.0066 13.4171 15.6022 13.3391 15.1819C13.2705 14.8132 12.9478 14.5455 12.5715 14.5455C12.523 14.5455 12.474 14.5501 12.428 14.5587C12.242 14.5916 12.0944 14.6069 11.9638 14.6069C10.5304 14.6069 9.36422 13.4538 9.36422 12.0365C9.36422 10.6193 10.5286 9.46629 11.9599 9.46629C13.3923 9.46629 14.5575 10.6193 14.5575 12.0365C14.5575 12.1746 14.5421 12.3197 14.5085 12.4943C14.4305 12.9145 14.7141 13.319 15.1404 13.3958C15.1874 13.4042 15.2352 13.4086 15.2827 13.4086C15.6624 13.4086 15.9863 13.1407 16.0522 12.773C16.1023 12.5046 16.1257 12.2706 16.1257 12.0366C16.1267 10.938 15.6936 9.90406 14.9062 9.12517C14.1188 8.34625 13.0731 7.91727 11.9619 7.91727Z" fill="#6ED6F3"/>
<path d="M21.9955 10.1437C21.9443 9.87593 21.7369 9.66326 21.4667 9.60184C20.4845 9.37898 19.6671 8.78318 19.1655 7.92487C18.6655 7.06798 18.5516 6.07098 18.8446 5.11918C18.9273 4.85848 18.8448 4.57461 18.6348 4.39636C17.6537 3.55914 16.5363 2.92124 15.3138 2.50062C15.24 2.4751 15.163 2.46219 15.0847 2.46219C14.8912 2.46219 14.7054 2.54261 14.5755 2.68196C13.8903 3.40955 12.9621 3.81025 11.962 3.81025C10.9618 3.81025 10.033 3.40888 9.34619 2.67985C9.16156 2.48452 8.86548 2.41003 8.60603 2.49875C7.37595 2.92465 6.25919 3.56319 5.28632 4.39691C5.0797 4.57485 4.99751 4.85678 5.07692 5.1158C5.37192 6.06844 5.25879 7.06534 4.75822 7.92317C4.25886 8.7809 3.44221 9.37644 2.45727 9.6004C2.18678 9.66391 1.97922 9.87724 1.92852 10.1434C1.80599 10.7802 1.7439 11.4171 1.7439 12.0364C1.7439 12.6558 1.80599 13.2928 1.92843 13.9293C1.97939 14.1968 2.18678 14.4095 2.457 14.4712C3.43935 14.6942 4.25667 15.2897 4.75839 16.1481C5.25876 17.0058 5.37192 18.0027 5.07675 18.9558C4.99791 19.2129 5.0796 19.4952 5.28706 19.6767C6.2679 20.5136 7.38458 21.1514 8.60727 21.5729C8.87601 21.6639 9.16365 21.5857 9.34449 21.3928C10.0312 20.6641 10.9599 20.2628 11.96 20.2628C12.96 20.2628 13.8889 20.6641 14.5747 21.3921C14.7049 21.5317 14.8909 21.6119 15.0852 21.6119C15.162 21.6119 15.2384 21.5997 15.3156 21.5744C16.5373 21.1533 17.654 20.5154 18.6355 19.6781C18.8416 19.5005 18.924 19.218 18.8451 18.9572C18.5499 18.0038 18.6636 17.007 19.1656 16.15C19.6654 15.2915 20.4826 14.6961 21.4669 14.4731C21.7339 14.4123 21.9412 14.2004 21.9955 13.9315C22.1179 13.2944 22.1799 12.6575 22.1799 12.0384C22.1799 11.4181 22.1179 10.7804 21.9955 10.1437ZM17.0759 18.5128C16.4659 18.9852 15.793 19.3695 15.0723 19.657C14.2126 18.9036 13.1129 18.4903 11.96 18.4903C10.8133 18.4903 9.71379 18.9036 8.84826 19.6571C8.1277 19.3697 7.45474 18.9855 6.84457 18.5131C7.07646 17.4012 6.88884 16.2526 6.31105 15.264C5.73803 14.2804 4.82446 13.5451 3.72855 13.1818C3.67274 12.7988 3.64454 12.4141 3.64454 12.0365C3.64454 11.6604 3.67274 11.2759 3.72855 10.8915C4.82103 10.5308 5.73443 9.79558 6.31105 8.80906C6.88582 7.82412 7.07337 6.67546 6.84423 5.56015C7.45416 5.08789 8.1271 4.70367 8.848 4.41603C9.71101 5.17075 10.8106 5.58466 11.96 5.58466C13.113 5.58466 14.2126 5.17132 15.0723 4.41795C15.793 4.70551 16.4658 5.08973 17.0758 5.562C16.8459 6.67841 17.0327 7.82688 17.607 8.8109C18.18 9.7945 19.0933 10.5299 20.1894 10.8933C20.2452 11.2774 20.2734 11.6621 20.2734 12.0404C20.2768 12.4023 20.2493 12.7856 20.1914 13.1818C19.0954 13.5452 18.1819 14.2804 17.6089 15.2639C17.0354 16.2466 16.848 17.3951 17.0759 18.5128Z" fill="#6ED6F3"/>
</svg>
