<svg width="18" height="18" viewBox="0 0 18 18" fill="none" xmlns="http://www.w3.org/2000/svg">
<path d="M15.4008 2H3.23111C2.00087 2 1 3.00107 1 4.23111V13.1556C1 14.3856 2.00087 15.3867 3.23111 15.3867H15.4008C16.631 15.3867 17.6319 14.3856 17.6319 13.1556V4.23111C17.6319 3.00107 16.631 2 15.4008 2ZM16.4149 10.1131H11.9527C11.1699 10.1131 10.5329 9.47612 10.5329 8.69334C10.5329 7.91056 11.1699 7.27355 11.9527 7.27355H16.4149V10.1131ZM16.4149 6.05658H11.9527C10.4988 6.05658 9.31595 7.23949 9.31595 8.69334C9.31595 10.1472 10.4989 11.3301 11.9527 11.3301H16.4149V13.1556C16.4149 13.7149 15.96 14.1697 15.4008 14.1697H3.23111C2.67195 14.1697 2.21697 13.7149 2.21697 13.1556V4.23111C2.21697 3.67174 2.67195 3.21697 3.23111 3.21697H15.4008C15.96 3.21697 16.4149 3.67174 16.4149 4.23111V6.05658ZM11.3442 8.69334C11.3442 9.14143 11.7075 9.50466 12.1555 9.50466C12.6036 9.50466 12.9669 9.14143 12.9669 8.69334C12.9669 8.24526 12.6036 7.88203 12.1555 7.88203C11.7075 7.88203 11.3442 8.24526 11.3442 8.69334Z" fill="#6ED6F3"/>
</svg>
