<svg width="22" height="22" viewBox="0 0 22 22" fill="none" xmlns="http://www.w3.org/2000/svg">
    <g clip-path="url(#clip0_5331_2247)">
        <path d="M0.511719 10.921C0.511657 12.2942 0.782068 13.654 1.30751 14.9226C1.83296 16.1913 2.60315 17.344 3.5741 18.315C4.54506 19.286 5.69776 20.0563 6.9664 20.5818C8.23504 21.1073 9.59476 21.3777 10.9679 21.3777C12.3411 21.3777 13.7008 21.1073 14.9695 20.5818C16.2381 20.0563 17.3908 19.286 18.3618 18.315C19.3327 17.344 20.1029 16.1913 20.6283 14.9226C21.1538 13.654 21.4242 12.2942 21.4241 10.921C21.4242 9.54788 21.1538 8.18814 20.6283 6.91948C20.1029 5.65082 19.3327 4.49808 18.3618 3.52708C17.3908 2.55608 16.2381 1.78584 14.9695 1.26033C13.7008 0.734829 12.3411 0.464355 10.9679 0.464355C9.59476 0.464355 8.23504 0.734829 6.9664 1.26033C5.69776 1.78584 4.54506 2.55608 3.5741 3.52708C2.60315 4.49808 1.83296 5.65082 1.30751 6.91948C0.782068 8.18814 0.511657 9.54788 0.511719 10.921Z" fill="#F4F4F4"/>
        <path d="M14.181 9.00943C14.0739 7.89388 13.1099 7.52001 11.8933 7.4129V5.86084H10.9516V7.36844H10.1998V5.86084H9.25806V7.40684H7.3584V8.4173C7.3584 8.4173 8.05359 8.40315 8.04147 8.4173C8.16673 8.40147 8.29327 8.43469 8.39459 8.51003C8.49591 8.58536 8.56418 8.69697 8.58509 8.82148V10.5837H8.68614H8.58509V13.0755C8.58252 13.1193 8.57132 13.1622 8.55214 13.2017C8.53295 13.2412 8.50616 13.2765 8.47331 13.3056C8.44045 13.3347 8.40217 13.357 8.36066 13.3713C8.31916 13.3855 8.27524 13.3915 8.23143 13.3888H7.54634L7.36042 14.5144H9.2621V16.0786H10.2038V14.5346H10.9576V16.0766H11.8994V14.5184C13.4838 14.4275 14.5913 14.0274 14.7287 12.54C14.8398 11.3436 14.276 10.808 13.3767 10.5938C13.9203 10.3069 14.2618 9.82588 14.181 9.00943ZM12.8654 12.3561C12.8654 13.5262 10.8627 13.3948 10.2241 13.3948V11.3173C10.8627 11.3173 12.8654 11.1354 12.8654 12.3561ZM12.4248 9.42978C12.4248 10.4948 10.7556 10.3715 10.2241 10.3715V8.48803C10.7535 8.48803 12.4248 8.32029 12.4248 9.42978Z" fill="#F09242"/>
        <path d="M11.0021 1.85728e-07C8.82647 -0.000399528 6.69956 0.64439 4.89038 1.85282C3.0812 3.06126 1.671 4.77906 0.838143 6.78898C0.00528045 8.7989 -0.212842 11.0107 0.211362 13.1446C0.635565 15.2785 1.68304 17.2386 3.22131 18.7772C4.75959 20.3157 6.71957 21.3636 8.85339 21.7882C10.9872 22.2128 13.199 21.9951 15.2091 21.1626C17.2192 20.3301 18.9372 18.9202 20.146 17.1112C21.3548 15.3023 21.9999 13.1755 21.9999 10.9998C21.9999 8.08285 20.8413 5.2853 18.7789 3.22249C16.7164 1.15968 13.9191 0.000536099 11.0021 1.85728e-07ZM11.0021 21.0175C9.02195 21.0167 7.08647 20.4288 5.44036 19.3282C3.79424 18.2276 2.5114 16.6637 1.75399 14.8341C0.996581 13.0045 0.798619 10.9914 1.18513 9.04933C1.57163 7.10725 2.52526 5.32336 3.92545 3.92317C5.32564 2.52299 7.10952 1.56936 9.0516 1.18286C10.9937 0.796348 13.0068 0.994311 14.8363 1.75172C16.6659 2.50913 18.2299 3.79197 19.3305 5.43808C20.4311 7.0842 21.019 9.01967 21.0198 10.9998C21.0206 12.3156 20.762 13.6186 20.2589 14.8344C19.7557 16.0501 19.0178 17.1548 18.0875 18.0852C17.1571 19.0156 16.0524 19.7534 14.8367 20.2566C13.6209 20.7597 12.3179 21.0183 11.0021 21.0175Z" fill="#282138"/>
        <path d="M3.02163 10.9996C3.0194 8.93953 3.81628 6.9589 5.24464 5.47441L4.48073 4.62563C2.93678 6.2044 2.01836 8.28991 1.89608 10.4948C1.77379 12.6996 2.45596 14.8739 3.81585 16.6137L4.66666 15.8498C3.59791 14.459 3.0195 12.7536 3.02163 10.9996ZM18.9808 10.9996C18.9836 13.0732 18.1765 15.0659 16.7315 16.5531L17.4934 17.4019C19.062 15.8122 19.9925 13.702 20.1083 11.4718C20.2242 9.24149 19.5173 7.04628 18.1219 5.30264L17.2731 6.0625C18.3822 7.46886 18.984 9.20852 18.9808 10.9996ZM6.09342 4.70849C7.6014 3.53128 9.48216 2.93509 11.3929 3.02857C13.3037 3.12205 15.1173 3.89897 16.5032 5.21776L17.3519 4.45587C15.763 2.91196 13.666 1.99982 11.4532 1.8901C9.24039 1.78037 7.06343 2.48057 5.32952 3.8597L6.09342 4.70849ZM15.8787 17.315C14.356 18.4916 12.4593 19.0783 10.5382 18.9669C8.61709 18.8555 6.80097 18.0535 5.4245 16.7087L4.57571 17.4726C6.1548 19.042 8.25371 19.9792 10.4764 20.1072C12.699 20.2353 14.8917 19.5454 16.6406 18.1678L15.8787 17.315Z" fill="#84818A"/>
    </g>
    <defs>
        <clipPath id="clip0_5331_2247">
            <rect width="22" height="22" fill="white"/>
        </clipPath>
    </defs>
</svg>
